<?xml version="1.0" standalone="no"?>
<!DOCTYPE svg PUBLIC "-//W3C//DTD SVG 1.1//EN" "http://www.w3.org/Graphics/SVG/1.1/DTD/svg11.dtd" >
<svg xmlns="http://www.w3.org/2000/svg">
<metadata></metadata>
<defs>
<font id="oxtail_ot_mediummedium" horiz-adv-x="1024" >
<font-face units-per-em="2048" ascent="1536" descent="-512" />
<missing-glyph horiz-adv-x="532" />
<glyph horiz-adv-x="2048" />
<glyph horiz-adv-x="2048" />
<glyph unicode="&#xd;" horiz-adv-x="2048" />
<glyph unicode=" "  horiz-adv-x="532" />
<glyph unicode="&#x09;" horiz-adv-x="532" />
<glyph unicode="&#xa0;" horiz-adv-x="532" />
<glyph unicode="!" horiz-adv-x="454" d="M82 1128q0 49 5.5 84.5t20.5 67t45 47.5t74 16t73.5 -16t45 -47.5t21.5 -67t6 -84.5q0 -60 -30.5 -179.5t-35.5 -147.5q-33 -186 -33 -330v-35h-94v35q0 110 -35 330q-4 25 -33.5 145.5t-29.5 181.5zM113 117q0 52 36.5 93.5t90.5 41.5t90.5 -41.5t36.5 -93.5t-37 -94.5 t-90 -42.5t-90 42.5t-37 94.5z" />
<glyph unicode="&#x22;" horiz-adv-x="702" d="M72 1237q0 42 22.5 62t81.5 20q60 0 83.5 -20t23.5 -62q0 -15 -4 -51l-70 -471h-64l-69 471q-4 36 -4 51zM420 1237q0 42 22.5 62t81.5 20q60 0 83.5 -20t23.5 -62q0 -15 -4 -51l-70 -471h-63l-70 471q-4 36 -4 51z" />
<glyph unicode="#" horiz-adv-x="1210" d="M61 539h267l53 245h-264l-21 95h307l97 438h114l-100 -438h264l101 438h114l-98 -438h233l21 -95h-277l-59 -245h281l20 -95h-319l-101 -444h-112l100 444h-266l-97 -444h-114l100 444h-223zM438 539h264l56 245h-264z" />
<glyph unicode="$" horiz-adv-x="1212" d="M92 348q0 73 40 105t83 32q57 0 99 -31t42 -96q0 -51 -29 -75t-85 -29q50 -142 301 -160v500q-67 19 -113.5 35.5t-99.5 41t-87.5 53.5t-64.5 67.5t-44.5 89t-14.5 112.5q0 67 24 121.5t64 91t95 62.5t115 38.5t126 14.5v111h102v-111q86 -3 164.5 -23.5t145.5 -58.5 t107 -101.5t40 -144.5q0 -39 -14 -68t-35.5 -43t-41.5 -20t-38 -6q-57 0 -97 31t-40 96q0 50 30 77t74 27q-25 69 -107.5 104.5t-187.5 35.5v-447q56 -15 96 -27t93.5 -32.5t90.5 -42.5t76.5 -55.5t63.5 -71.5t39.5 -91t15.5 -114q0 -92 -39.5 -159.5t-109.5 -105.5 t-149.5 -56.5t-176.5 -22.5v-213h-102v209q-67 4 -131 19.5t-122.5 44.5t-102 69t-69.5 96t-26 121zM293 1051q0 -85 54 -144t196 -98v418q-250 -9 -250 -176zM645 92q142 6 232 62.5t90 144.5q0 89 -79.5 153.5t-242.5 116.5v-477z" />
<glyph unicode="%" horiz-adv-x="1761" d="M72 909q0 169 104 288.5t250 119.5q83 0 166 -47q109 -66 266 -66q167 0 297 113h113l-713 -1317h-111l639 1188q-103 -70 -219 -70q-80 0 -143 25q61 -115 61 -234q0 -170 -104 -288.5t-252 -118.5q-147 0 -250.5 118.5t-103.5 288.5zM221 983q0 -59 12 -121.5 t37 -125.5t73 -103.5t112 -40.5q51 0 87 21t55 57.5t27.5 77t8.5 88.5q0 46 -7 95.5t-24 103.5t-43 96t-68 69t-94 27q-50 0 -86 -21t-54.5 -57.5t-27 -77.5t-8.5 -88zM979 387q0 169 104 288.5t250 119.5q148 0 252.5 -119.5t104.5 -288.5q0 -170 -104.5 -288.5 t-252.5 -118.5q-147 0 -250.5 118.5t-103.5 288.5zM1128 461q0 -59 12 -122t37 -126t73 -103t112 -40q50 0 86 20.5t54.5 56.5t27 76.5t8.5 87.5q0 59 -11.5 122t-36 127t-72 104.5t-111.5 40.5q-51 0 -87.5 -21t-55.5 -57.5t-27.5 -77.5t-8.5 -88z" />
<glyph unicode="&#x26;" horiz-adv-x="1689" d="M82 414q0 77 27 143t74 113.5t102 80.5t118 52l136 41q-9 26 -17 78t-8 86q0 176 80 257t240 81q50 0 96 -14t85 -42.5t62 -77.5t23 -112q0 -49 -20 -90.5t-52.5 -70.5t-83 -53.5t-101 -41t-116.5 -31.5q138 -287 293 -442l76 -76q34 32 58 65t35.5 56t17.5 51t6.5 40.5 t0.5 33.5q0 43 -16 73t-65 56l-64 32v48h424v-99h-78q-28 0 -46 -7.5t-28 -26.5t-13.5 -34.5t-8.5 -47.5q-22 -162 -105 -250l-47 -52q52 -38 95 -59.5t92 -21.5q114 0 181.5 51.5t102.5 171.5h21v-56q0 -166 -97.5 -254t-267.5 -88q-152 0 -278 119q-51 -42 -103 -67.5 t-109.5 -36t-97 -13t-106.5 -2.5q-100 0 -191.5 27.5t-165.5 80.5t-117.5 138t-43.5 191zM268 465q0 -67 27.5 -131t79.5 -118.5t138.5 -88t193.5 -33.5q70 0 122 18t115 56l-47 45q-80 77 -161.5 200.5t-125.5 231.5l-43 107q-172 -68 -235.5 -128t-63.5 -159zM653 1087 q0 -57 8 -97.5t35 -100.5q118 40 164 63q53 24 77 57.5t24 94.5q0 62 -43 103.5t-99 41.5q-79 0 -122.5 -42.5t-43.5 -119.5z" />
<glyph unicode="'" horiz-adv-x="354" d="M72 1237q0 42 22.5 62t81.5 20q60 0 83.5 -20t23.5 -62q0 -15 -4 -51l-70 -471h-64l-69 471q-4 36 -4 51z" />
<glyph unicode="(" horiz-adv-x="729" d="M92 524q0 408 516 819l49 -57l-36 -33q-141 -126 -244 -339.5t-103 -389.5t103 -389.5t244 -339.5l36 -33l-49 -55q-516 411 -516 817z" />
<glyph unicode=")" horiz-adv-x="729" d="M72 -238l37 33q141 126 243.5 339.5t102.5 389.5t-102.5 389.5t-243.5 339.5l-37 33l49 57q516 -411 516 -819q0 -406 -516 -817z" />
<glyph unicode="*" horiz-adv-x="892" d="M62.5 1073q-7.5 23 9.5 47q13 24 36.5 30.5t44 1.5t40.5 -17q15 -8 36 -26t52 -48t32 -31q84 -65 111 -84q-14 107 -21 135q-28 130 -28 158q0 98 71 98q40 0 57 -30t17 -68q0 -17 -5.5 -45t-15 -68t-10.5 -45q-13 -73 -18 -135q78 57 109 84q1 1 32 31t52 48t36 26 q20 12 40.5 17t44 -1.5t36.5 -30.5q36 -59 -49 -112q-41 -21 -149 -52q-11 -4 -129 -51q84 -37 129 -53q120 -34 149 -51q85 -53 49 -113q-13 -24 -36.5 -30.5t-44 -1t-40.5 17.5q-11 6 -29.5 21t-32 27.5t-33.5 32t-25 23.5q-31 27 -109 84q5 -62 18 -135q1 -5 10.5 -45 t15 -68t5.5 -45q0 -38 -17 -68t-57 -30q-71 0 -71 98q0 29 28 158q7 28 21 135q-27 -19 -111 -84q-5 -4 -25 -23.5t-33.5 -32t-32 -27.5t-29.5 -21q-20 -12 -40.5 -17.5t-44 1t-36.5 30.5q-36 60 49 113q32 18 149 51q60 21 129 53q-87 36 -129 51q-113 32 -149 52 q-21 11 -36 26.5t-22.5 38.5z" />
<glyph unicode="+" horiz-adv-x="1005" d="M41 506v115h403v405h115v-405h406v-115h-404v-406h-115v406h-405z" />
<glyph unicode="," horiz-adv-x="448" d="M72 -217h18q55 0 107.5 35t52.5 96q0 29 -15.5 49.5t-37.5 33.5t-44 27t-37.5 38.5t-15.5 58.5q0 61 33 96t94 35q73 0 116.5 -59.5t43.5 -143.5q0 -129 -83.5 -220t-209.5 -91h-14z" />
<glyph unicode="-" horiz-adv-x="616" d="M82 434v156h453v-156h-453z" />
<glyph unicode="." horiz-adv-x="397" d="M72 117q0 52 36.5 93.5t90.5 41.5t90.5 -41.5t36.5 -93.5t-37 -94.5t-90 -42.5t-90 42.5t-37 94.5z" />
<glyph unicode="/" horiz-adv-x="745" d="M2 0l629 1317h112l-630 -1317h-111z" />
<glyph unicode="0" horiz-adv-x="1245" d="M102 657q0 185 70 342t190 247.5t261 90.5q106 0 202 -53.5t166 -144.5t111 -217t41 -265q0 -185 -69.5 -341t-189.5 -246t-261 -90t-261 90t-190 246t-70 341zM322 797q0 -76 8 -159.5t31.5 -184t59 -179t98.5 -131.5t143 -53q64 0 112.5 28.5t76 72t45 103.5t23 113 t5.5 111q0 50 -4 106t-14.5 126.5t-26.5 135.5t-42.5 128t-61 109.5t-84 75t-107.5 28.5q-64 0 -112.5 -29t-76 -72.5t-45 -103.5t-23 -113.5t-5.5 -111.5z" />
<glyph unicode="1" horiz-adv-x="819" d="M82 0v98h164q42 0 57.5 30t15.5 83v817q-81 -70 -233 -90v109q116 27 200 94.5t107 175.5h133v-1106q0 -113 78 -113h158v-98h-680z" />
<glyph unicode="2" horiz-adv-x="1097" d="M78 197q0 100 31.5 170.5t105.5 138.5q17 16 35.5 31t42 30.5t40 26t46 27t43 24t48 26t44.5 23.5q51 27 85.5 49.5t74.5 58.5t61 83.5t21 103.5q0 120 -63 182t-204 62q-97 0 -159 -58t-62 -145q60 0 93.5 -28t33.5 -82q0 -50 -36 -79.5t-93 -29.5q-78 0 -115.5 49 t-37.5 129q0 101 46.5 176.5t125.5 120.5q54 30 105 41.5t122 11.5q75 0 142 -11.5t128 -38.5t105 -68.5t70 -104.5t26 -143q0 -64 -26.5 -119.5t-72 -97t-104 -77.5t-123 -67t-129 -61.5t-123 -63.5t-104 -70t-72 -85.5t-26.5 -104.5q0 -72 2 -88h6q39 158 246 158 q51 0 103 -18.5t86 -41t73.5 -41t68.5 -18.5q38 0 68 11.5t48.5 28.5t32.5 44t21 50.5t13 56.5h30q1 -21 3 -47t2 -56q0 -134 -62 -210t-192 -76q-52 0 -85 11t-89 40q-9 5 -42.5 25t-58 33t-60 25.5t-63.5 12.5q-56 0 -79 -29t-37 -90l-2 -8h-148q-10 165 -10 197z" />
<glyph unicode="3" horiz-adv-x="1091" d="M92 332q0 69 38 111t108 42q61 0 97 -29.5t36 -88.5q0 -43 -33.5 -70t-73.5 -27q0 -49 33 -94q63 -84 209 -84q127 0 186.5 65t59.5 169q0 284 -306 321v33q302 46 302 313q0 39 -13 78.5t-39 77t-74 61t-110 23.5q-108 0 -168.5 -44t-60.5 -134q48 -8 78 -35t30 -72 q0 -49 -37.5 -76.5t-87.5 -27.5q-74 0 -109.5 50.5t-35.5 125.5q0 83 65.5 169t153.5 118q85 30 174 30q71 0 137 -13.5t126 -42.5t104.5 -71.5t71 -105.5t26.5 -139q0 -101 -66 -180.5t-163 -106.5l-43 -12v-4l47 -13q106 -27 175.5 -118.5t69.5 -198.5q0 -254 -274 -330 q-86 -22 -217 -22q-107 0 -201.5 43t-154.5 125t-60 184z" />
<glyph unicode="4" horiz-adv-x="1103" d="M0 489l662 828h161v-819h193v-117h-193v-170q0 -113 78 -113h115v-98h-649v98h176q42 0 57.5 30t15.5 83v170h-608zM174 498h442v567z" />
<glyph unicode="5" horiz-adv-x="1114" d="M66 328q0 59 37 99t98 40q143 0 143 -119q0 -45 -30 -76.5t-68 -31.5q14 -83 81 -121.5t167 -38.5q67 0 120.5 19.5t87 51.5t55.5 76t31 88.5t9 92.5q0 51 -8.5 98.5t-30 95.5t-55 83t-88 57t-123.5 22q-74 0 -123.5 -36t-65.5 -75h-151l55 664h69q126 -66 297 -66 q159 0 239 18t155 60l20 -6q-6 -39 -31 -80q-38 -58 -82.5 -95t-101.5 -54.5t-110 -23t-132 -5.5q-73 0 -219 43l-32 -332h12q83 101 287 101q199 0 321.5 -122.5t122.5 -318.5q0 -117 -44.5 -207t-120.5 -143t-167 -79.5t-192 -26.5q-86 0 -163 22.5t-137.5 65t-96 110 t-35.5 150.5z" />
<glyph unicode="6" horiz-adv-x="1140" d="M86 639q0 167 42 301t115 220t169.5 131.5t208.5 45.5q53 0 102.5 -8.5t97.5 -29t83.5 -52t57 -81t21.5 -111.5q0 -57 -36.5 -98.5t-90.5 -41.5q-16 0 -34 4t-40.5 14.5t-36.5 34.5t-14 58q0 39 26.5 67t78.5 31q-9 56 -63.5 85.5t-141.5 29.5q-82 0 -147.5 -46 t-104 -120.5t-58.5 -160.5t-20 -175q0 -71 8 -102q55 84 143 120t185 36q183 0 297.5 -111t114.5 -297q0 -87 -27.5 -157.5t-72 -116t-104 -76t-119.5 -43.5t-122 -13q-229 0 -373.5 181.5t-144.5 480.5zM340 414q0 -56 17 -113.5t49 -107.5t85.5 -81.5t118.5 -31.5 t111.5 23.5t71.5 64.5t36 88t11 102q0 171 -64.5 251.5t-197.5 80.5q-105 0 -171.5 -82.5t-66.5 -193.5z" />
<glyph unicode="7" horiz-adv-x="1026" d="M61 1100q0 51 9.5 90.5t33 74t69.5 53.5t112 19q62 0 116 -20.5t86.5 -45t76 -45t85.5 -20.5q48 0 80.5 28.5t42.5 68.5l8 34h156q8 -74 8 -153q0 -297 -135 -490q-11 -16 -48 -66t-48 -69t-32 -59t-29.5 -78t-10.5 -84l-4 -88q-1 -14 -1.5 -44.5t-1.5 -44.5t-3.5 -40.5 t-6.5 -39.5t-10.5 -32.5t-17 -29t-24.5 -20.5t-34 -15t-44 -4q-129 0 -129 225q0 120 56 226.5t152 186.5q149 124 211 283q52 124 52 283v10h-11q-60 -190 -260 -190q-46 0 -92 17t-76.5 38t-68 38t-68.5 17q-40 0 -69 -11.5t-48 -36t-29.5 -45.5t-23.5 -56h-27q0 25 -1 68 t-1 67z" />
<glyph unicode="8" horiz-adv-x="1101" d="M92 358q0 116 71.5 200t180.5 128q-47 26 -81 53t-64.5 64.5t-46 88.5t-15.5 114q0 79 25.5 139t66 95.5t98 58t114.5 30.5t122 8q80 0 149.5 -18.5t129 -57t93.5 -107t34 -159.5q0 -101 -59.5 -171.5t-151.5 -110.5q40 -30 56 -42.5t50 -41t49 -46t38 -48t33 -57t18 -63 t8 -75.5q0 -78 -27 -140.5t-72 -103t-106.5 -67.5t-126.5 -38t-137 -11q-84 0 -162.5 23.5t-143.5 68t-104 119t-39 167.5zM252 334q0 -118 89.5 -186t219.5 -68q118 0 193 54t75 153q0 44 -14.5 81.5t-43 70t-58 56.5t-72.5 52q-32 21 -85 44.5t-77 26.5 q-94 -18 -160.5 -108t-66.5 -176zM305 1063q0 -74 42 -120.5t136 -94.5l166 -86q87 57 128.5 114t41.5 138q0 107 -72.5 165t-195.5 58q-114 0 -180 -44.5t-66 -129.5z" />
<glyph unicode="9" horiz-adv-x="1140" d="M92 932q0 87 27.5 157.5t72 115.5t104 75.5t119.5 43.5t122 13q230 0 374 -181t144 -480q0 -166 -45.5 -301t-123.5 -220.5t-178 -131.5t-212 -46q-53 0 -102.5 8.5t-97.5 29.5t-83.5 52.5t-57.5 81t-22 111.5q0 57 36.5 98t90.5 41q16 0 34 -4t40.5 -14t36.5 -34t14 -58 q0 -39 -26 -67.5t-78 -31.5q9 -56 63 -85t141 -29q66 0 124.5 30.5t100 81t71.5 115.5t44.5 135.5t14.5 139.5q0 67 -9 102q-55 -84 -142.5 -120t-184.5 -36q-183 0 -297.5 111t-114.5 297zM301 956q0 -170 64.5 -250.5t197.5 -80.5q105 0 171.5 82.5t66.5 193.5 q0 77 -28.5 151t-92.5 128.5t-150 54.5q-52 0 -92.5 -16t-66 -42.5t-41.5 -63.5t-22.5 -75t-6.5 -82z" />
<glyph unicode=":" horiz-adv-x="417" d="M82 117q0 52 36.5 93.5t90.5 41.5t90.5 -41.5t36.5 -93.5t-37 -94.5t-90 -42.5t-90 42.5t-37 94.5zM82 676q0 52 37 94.5t90 42.5t90 -42.5t37 -94.5t-36.5 -93.5t-90.5 -41.5t-90.5 41.5t-36.5 93.5z" />
<glyph unicode=";" horiz-adv-x="442" d="M57 -217h19q55 0 107.5 35t52.5 96q0 29 -15.5 49.5t-37.5 33.5t-44 27t-37.5 38.5t-15.5 58.5q0 61 33 96t94 35q73 0 116.5 -59.5t43.5 -143.5q0 -129 -83.5 -220t-209.5 -91h-14zM100 676q0 52 37 94.5t90 42.5t90 -42.5t37 -94.5t-36.5 -93.5t-90.5 -41.5t-90.5 41.5 t-36.5 93.5z" />
<glyph unicode="&#x3c;" horiz-adv-x="794" d="M72 483v103l641 387v-158l-475 -280l475 -281v-158z" />
<glyph unicode="=" horiz-adv-x="739" d="M82 352v125h575v-125h-575zM82 649v125h575v-125h-575z" />
<glyph unicode="&#x3e;" horiz-adv-x="794" d="M82 96v158l475 281l-475 280v158l641 -387v-103z" />
<glyph unicode="?" horiz-adv-x="888" d="M61 1047q0 76 34.5 134t91.5 91t121.5 49t133.5 16q56 0 108.5 -10t103.5 -33t89 -57.5t61 -87.5t23 -119q0 -71 -22 -126.5t-57.5 -92t-78.5 -66.5t-85.5 -56.5t-78 -55.5t-57.5 -71t-22 -95v-39h-90v82q0 66 32 120.5t77 94t90.5 79.5t77.5 96.5t32 125.5 q0 102 -59.5 163.5t-169.5 61.5q-117 0 -180.5 -51t-63.5 -139q12 2 33 2q53 0 87 -25.5t34 -76.5q0 -40 -21 -67t-43 -35.5t-41 -8.5q-80 0 -120 55.5t-40 141.5zM276 117q0 52 36.5 93.5t90.5 41.5t90.5 -41.5t36.5 -93.5t-37 -94.5t-90 -42.5t-90 42.5t-37 94.5z" />
<glyph unicode="@" horiz-adv-x="1667" d="M98 381q0 160 56 302t153.5 245t237 163t299.5 60q163 0 294.5 -37t228 -110t149.5 -188.5t53 -266.5q0 -135 -38 -240.5t-121.5 -171t-203.5 -65.5q-90 0 -148 43t-67 118q-25 -69 -103 -109t-159 -40q-116 0 -178 72t-62 190q0 163 104.5 281t264.5 118q127 0 174 -79 l27 63h160l-78 -436q-2 -6 -2 -19q0 -38 26.5 -64t85.5 -26q60 0 104.5 38t67 97t33 115t10.5 105q0 108 -31.5 195.5t-87 148t-133.5 101t-168.5 59t-195.5 18.5q-141 0 -260 -54.5t-197.5 -147.5t-122 -216.5t-43.5 -261.5q0 -146 47.5 -258t134 -182.5t202.5 -106 t257 -35.5q104 0 192.5 26.5t184.5 80.5l29 -51q-200 -134 -447 -134q-159 0 -291.5 42t-230.5 123t-152.5 207.5t-54.5 287.5zM662 360q0 -42 8.5 -76.5t39 -64t81.5 -29.5q55 0 95.5 31.5t60.5 81t29 95t9 87.5q0 30 -4.5 57t-17 56t-39.5 46.5t-66 17.5q-45 0 -81 -22.5 t-56.5 -56t-34.5 -76t-19 -79t-5 -68.5z" />
<glyph unicode="A" horiz-adv-x="1462" d="M31 0v100h45q23 0 38.5 6t27 21t17 26.5t15.5 36.5l444 1127h250l400 -1102q11 -29 16.5 -42.5t19 -34t31.5 -29.5t43 -9h54v-100h-551v100h88q63 0 63 47q0 22 -10 52l-64 180h-571l-65 -170q-9 -24 -9 -43q0 -32 23.5 -49t64.5 -17h88v-100h-458zM426 477h500l-238 682 z" />
<glyph unicode="B" horiz-adv-x="1429" d="M61 1266v51h574q52 0 86.5 -0.5t87 -4t88.5 -10t82 -18.5t76.5 -29t63 -43.5t51.5 -59.5t31.5 -78.5t12.5 -100.5q0 -111 -87 -197t-195 -102q79 -12 146 -38t124.5 -68t90 -107.5t32.5 -147.5q0 -313 -526 -313h-711v98h23q74 0 101.5 29t27.5 113v837q0 54 -25 97.5 t-70 60.5zM469 248q0 -32 3 -54.5t12.5 -46.5t30.5 -36.5t54 -12.5h230q122 0 192 65t70 175q0 84 -44 148.5t-108.5 96t-136.5 31.5h-303v-366zM469 713h258q127 0 194.5 71t67.5 195q0 104 -74 172t-194 68h-150q-102 0 -102 -140v-366z" />
<glyph unicode="C" horiz-adv-x="1370" d="M102 672q0 144 53.5 271t140 212.5t196 134.5t221.5 49q105 0 254 -55q62 -24 88 -24q28 0 53 16t37 43q5 7 8 20h88v-440h-78q-33 142 -154 232t-270 90q-101 0 -178 -48.5t-120.5 -127.5t-65 -168t-21.5 -183q0 -131 25 -237t76.5 -188t138.5 -126.5t203 -44.5 q124 0 232.5 91.5t164.5 238.5l74 -25q-54 -194 -189.5 -310t-328.5 -116q-138 0 -256 46t-205.5 132t-137 219t-49.5 298z" />
<glyph unicode="D" horiz-adv-x="1515" d="M61 1266v51h588q127 0 232 -17t206.5 -63.5t171 -119.5t112 -193t42.5 -277q0 -126 -40.5 -233t-109.5 -182t-160.5 -128t-193 -78.5t-207.5 -25.5h-614v98h23q74 0 101.5 29t27.5 113v837q0 54 -25 97.5t-70 60.5zM469 240q0 -92 28 -117t121 -25h66q114 0 206.5 45 t152 121t91 174t31.5 207q0 170 -56.5 301t-173 209t-278.5 78h-63q-125 0 -125 -141v-852z" />
<glyph unicode="E" horiz-adv-x="1392" d="M61 1266v51h1178v-426h-90q-12 80 -32 136.5t-56 102t-95 67.5t-141 22h-231q-67 0 -96 -31.5t-29 -108.5v-350h186q101 0 101 152v49h102v-529h-102v50q0 151 -101 151h-186v-362q0 -85 30.5 -113.5t98.5 -28.5h252q294 0 301 363h98v-461h-1161v98h23q74 0 101.5 29 t27.5 113v837q0 54 -25 97.5t-70 60.5z" />
<glyph unicode="F" horiz-adv-x="1341" d="M61 1266v51h1178v-426h-90q-12 80 -32 136.5t-56 102t-95 67.5t-141 22h-231q-67 0 -96 -31.5t-29 -108.5v-350h186q101 0 101 152v49h102v-529h-102v50q0 151 -101 151h-186v-362q0 -85 30.5 -113.5t98.5 -28.5h131v-98h-641v98h23q74 0 101.5 29t27.5 113v837 q0 54 -25 97.5t-70 60.5z" />
<glyph unicode="G" horiz-adv-x="1519" d="M102 672q0 144 53.5 271t140 212.5t196 134.5t221.5 49q105 0 254 -55q62 -24 88 -24q56 0 86 51q9 12 12 28h88v-440h-78q-34 144 -147 233t-260 89q-104 0 -184.5 -48.5t-126.5 -127.5t-68.5 -168.5t-22.5 -182.5q0 -131 25 -237t76.5 -188t138.5 -126.5t203 -44.5 q121 0 204.5 74.5t83.5 177.5v84q0 26 -13.5 45t-41 30.5t-47 16.5t-53.5 11l-23 4v73h551v-90h-39q-63 0 -83.5 -25.5t-20.5 -95.5v-403h-88l-66 182q-73 -108 -174 -156.5t-237 -48.5q-138 0 -256 46t-205.5 132t-137 219t-49.5 298z" />
<glyph unicode="H" horiz-adv-x="1619" d="M61 1245v72h613v-98h-80q-67 0 -96 -31.5t-29 -108.5v-364h664v364q0 77 -29 108.5t-96 31.5h-29v98h537v-98h-29q-67 0 -96 -31.5t-29 -108.5v-839q0 -85 31 -113.5t98 -28.5h68v-98h-598v98h43q74 0 101.5 29t27.5 113v372h-664v-372q0 -85 31 -113.5t98 -28.5h68v-98 h-578v98h23q74 0 101.5 29t27.5 113v817q0 54 -25 97t-70 60z" />
<glyph unicode="I" horiz-adv-x="727" d="M61 1245v72h562v-98h-29q-67 0 -96 -31.5t-29 -108.5v-839q0 -85 31 -113.5t98 -28.5h68v-98h-578v98h23q74 0 101.5 29t27.5 113v817q0 54 -25 97t-70 60z" />
<glyph unicode="J" horiz-adv-x="1046" d="M49 315q0 77 37.5 134t106.5 57q15 0 29.5 -2t34.5 -9.5t35 -20.5t25.5 -38t10.5 -59q0 -31 -8.5 -53.5t-18 -32.5t-25.5 -21q-22 -17 -31 -25t-18.5 -25t-9.5 -38q0 -48 55 -83.5t107 -35.5q57 0 103.5 28.5t73.5 73t41.5 94t14.5 97.5v701q0 56 -25 101.5t-69 55.5 l-125 31v72h602v-98h-28q-68 0 -97.5 -31.5t-29.5 -108.5v-698q0 -196 -103 -304t-260 -108q-67 0 -127 10.5t-116 36t-96.5 64t-64.5 99t-24 136.5z" />
<glyph unicode="K" horiz-adv-x="1556" d="M61 1245v72h562v-98h-29q-67 0 -96 -31.5t-29 -108.5v-489l174 160l334 331q28 28 45.5 55t17.5 40q0 43 -45 43h-53v98h522v-98h-69q-52 0 -100.5 -23t-78 -49.5t-73.5 -71.5q-9 -9 -13 -14l-241 -246l409 -600q41 -61 88.5 -89t118.5 -28v-98h-587v96h38q80 0 80 62 q0 27 -35 80l-278 411l-254 -233v-176q0 -85 31 -113.5t98 -28.5h68v-98h-578v98h23q74 0 101.5 29t27.5 113v817q0 54 -25 97t-70 60z" />
<glyph unicode="L" horiz-adv-x="1292" d="M61 1245v72h650v-98h-117q-67 0 -96 -31.5t-29 -108.5v-839q0 -85 30.5 -113.5t98.5 -28.5h213q296 0 303 363h92v-461h-1118v98h23q74 0 101.5 29t27.5 113v817q0 54 -25 97t-70 60z" />
<glyph unicode="M" horiz-adv-x="1767" d="M61 1245v72h465l361 -955l332 955h444v-98h-29q-67 0 -96 -31.5t-29 -108.5v-839q0 -85 31 -113.5t98 -28.5h68v-98h-614v98h63q74 0 101.5 29t27.5 113v845l-389 -1085h-107l-405 1053v-813q0 -85 31 -113.5t98 -28.5h68v-98h-492v98h23q74 0 101.5 29t27.5 113v817 q0 54 -25 97t-70 60z" />
<glyph unicode="N" horiz-adv-x="1490" d="M61 1255v62h416l658 -981v741q0 85 -31 113.5t-98 28.5h-88v98h512v-98h-23q-74 0 -101.5 -29t-27.5 -113v-1077h-201l-694 1057v-817q0 -85 30.5 -113.5t98.5 -28.5h98v-98h-522v98h23q74 0 101.5 29t27.5 113v817q0 52 -25.5 93.5t-69.5 63.5z" />
<glyph unicode="O" horiz-adv-x="1523" d="M102 657q0 129 37.5 241t101.5 191.5t148.5 136.5t179.5 85t193 28q124 0 240 -45t210.5 -128.5t151.5 -216t57 -292.5q0 -129 -37.5 -240t-101.5 -190.5t-148 -136.5t-179 -85t-193 -28t-193 28t-179.5 85t-148.5 136.5t-101.5 190.5t-37.5 240zM350 711 q0 -76 16 -159.5t52 -168t86.5 -151.5t126 -109.5t164.5 -42.5q83 0 150 33.5t108.5 86.5t69.5 124t39.5 141.5t11.5 142.5q0 76 -16 159.5t-52 168t-86.5 151.5t-126 109.5t-164.5 42.5q-83 0 -150 -33.5t-108.5 -86.5t-69.5 -124t-39.5 -141.5t-11.5 -142.5z" />
<glyph unicode="P" horiz-adv-x="1361" d="M61 1245v72h623q68 0 123 -3t120.5 -13t114.5 -27t98 -47t80 -71.5t50.5 -102t19.5 -135.5q0 -88 -34.5 -155.5t-88 -107t-127.5 -64.5t-143.5 -33.5t-146.5 -8.5h-281v-309q0 -85 30.5 -113.5t98.5 -28.5h119v-98h-629v98h23q74 0 101.5 29t27.5 113v817q0 54 -25 97 t-70 60zM469 649h236q162 0 247.5 72.5t85.5 191.5q0 125 -89.5 215.5t-221.5 90.5h-133q-67 0 -96 -31.5t-29 -108.5v-430z" />
<glyph unicode="Q" horiz-adv-x="1538" d="M102 657q0 129 37.5 241t101.5 191.5t148.5 136.5t179.5 85t193 28q124 0 240 -45t210.5 -128.5t151.5 -216t57 -292.5q0 -209 -93.5 -363t-246.5 -235l4 -14q24 -85 61.5 -127.5t117.5 -42.5q46 0 87 38t62 81t31 82l33 -10q-9 -59 -19.5 -101t-32.5 -88.5t-52.5 -75 t-80 -47t-114.5 -18.5q-96 0 -165 69.5t-95 174.5l-5 16q-78 -19 -151 -19q-98 0 -193 28t-179.5 85t-148.5 136.5t-101.5 190.5t-37.5 240zM350 711q0 -144 51 -287q15 116 82 175.5t168 59.5q118 0 189.5 -55t115.5 -155q22 -55 86 -261q67 74 99.5 188t32.5 232 q0 76 -16 159.5t-52 168t-86.5 151.5t-126 109.5t-164.5 42.5q-83 0 -150 -33.5t-108.5 -86.5t-69.5 -124t-39.5 -141.5t-11.5 -142.5zM475 373q0 -101 45 -160q100 -133 275 -133q43 0 88 10q-10 30 -24 87t-25 99t-32 93.5t-44.5 84t-61.5 55.5t-86 23q-135 0 -135 -159z " />
<glyph unicode="R" horiz-adv-x="1411" d="M61 1245v72h590q61 0 112 -2.5t114.5 -12t113 -25t99 -43.5t82 -66t53 -94t20.5 -126q0 -127 -103 -210.5t-276 -100.5q112 -14 177 -74.5t85 -140.5q5 -19 13 -57.5t13.5 -63.5t16.5 -57.5t23 -51.5t31 -33t43 -14q63 0 91.5 46.5t41.5 146.5h29l2 -55v-22 q0 -127 -54 -201q-59 -80 -180 -80q-213 0 -256 323q-9 64 -32 118.5t-62.5 100.5t-101.5 72.5t-140 26.5h-137v-373q0 -32 3 -54.5t12.5 -46.5t30.5 -36.5t54 -12.5h66v-98h-547v98h23q74 0 101.5 29t27.5 113v817q0 54 -25 97t-70 60zM469 719h219q148 0 237 66t89 176 q0 48 -18 92.5t-53.5 82.5t-96.5 60.5t-139 22.5h-136q-102 0 -102 -140v-360z" />
<glyph unicode="S" horiz-adv-x="1212" d="M113 1001q0 78 27 139t69.5 97.5t101.5 60.5t116.5 32.5t121.5 8.5q113 0 305 -65q32 -12 64 -12q46 0 53 57h90v-428h-78q-30 166 -145 254t-275 88q-55 0 -104 -10t-89.5 -30.5t-64.5 -55.5t-24 -82q0 -51 29.5 -90t79 -64t114 -45.5t136 -40.5t143 -43t136 -58.5 t114 -81.5t79 -118t29.5 -162q0 -99 -42 -173.5t-113 -117t-154.5 -63.5t-176.5 -21q-61 0 -129 14.5t-97.5 24.5t-84.5 31q-55 19 -86 19q-25 0 -39 -19.5t-16 -46.5h-86v465h82q12 -84 49 -151.5t85 -109.5t107 -70t112 -39t101 -11q133 0 220.5 51t87.5 150 q0 55 -22 98.5t-53 71t-87.5 52.5t-100 39t-116.5 34q-76 21 -115 33.5t-105 38t-101.5 54t-74.5 70t-56 98.5t-17 127z" />
<glyph unicode="T" horiz-adv-x="1269" d="M61 827v490h1147v-490h-84q-5 67 -12.5 116.5t-27 106t-49.5 92t-81 59.5t-120 24h-86v-985q0 -85 31.5 -113.5t99.5 -28.5h118v-98h-673v98h65q75 0 103 29t28 113v985h-84q-69 0 -120.5 -24t-81 -59.5t-49.5 -92t-27.5 -106t-12.5 -116.5h-84z" />
<glyph unicode="U" horiz-adv-x="1361" d="M31 1245v72h561v-98h-29q-67 0 -96 -31.5t-29 -108.5v-719q0 -103 80 -170t213 -67q146 0 224.5 79.5t78.5 190.5v686q0 77 -29 108.5t-96 31.5h-28v98h450v-98h-28q-67 0 -96 -31.5t-29 -108.5v-643q0 -72 -15 -136t-50.5 -123.5t-89 -102.5t-137 -68.5t-188.5 -25.5 q-129 0 -225.5 36t-153 101t-83.5 146.5t-27 180.5v613q0 54 -24.5 97t-69.5 60z" />
<glyph unicode="V" horiz-adv-x="1363" d="M20 1245v72h568v-98h-41q-58 0 -95.5 -23t-37.5 -70q0 -23 8 -47l307 -901l309 901q9 27 9 47q0 47 -38 70t-96 23h-28v98h458v-98h-28q-19 0 -32.5 -2t-25 -9.5t-17.5 -12t-14 -21.5t-11 -24t-12 -33.5t-13 -37.5l-373 -1079h-254l-364 1057q-12 34 -19 51.5t-20.5 44 t-30.5 42.5t-39 24z" />
<glyph unicode="W" horiz-adv-x="2187" d="M20 1245v72h568v-98h-41q-58 0 -95.5 -23t-37.5 -70q0 -23 8 -47l307 -901l297 866l-10 27q-2 6 -9.5 26t-10.5 27.5t-10 23.5t-13 24t-14.5 19t-18.5 17.5t-22 10.5l-74 26v72h567v-98h-41q-58 0 -95.5 -23t-37.5 -70q0 -23 8 -47l307 -901l310 901q8 24 8 47 q0 47 -37.5 70t-95.5 23h-29v98h459v-98h-29q-19 0 -32.5 -2t-25 -9.5t-17.5 -12t-14 -21.5t-11 -24t-12 -33.5t-13 -37.5l-373 -1079h-254l-284 825l-285 -825h-254l-373 1079q-13 37 -22.5 59.5t-29.5 47t-46 33.5z" />
<glyph unicode="X" horiz-adv-x="1488" d="M70 1251v66h579v-98h-37q-34 0 -58 -13.5t-24 -44.5q0 -23 17 -47l223 -295l234 295q16 22 16 47q0 31 -24 44.5t-58 13.5h-37v98h473v-98h-43q-25 0 -47.5 -9.5t-44.5 -30.5t-34.5 -35t-33.5 -42l-311 -402l385 -507q39 -50 74.5 -72.5t93.5 -22.5h35v-98h-623v98h107 q18 0 28.5 13.5t10.5 33.5q0 21 -13 37l-272 359l-264 -355q-19 -28 -19 -45q0 -43 82 -43h47v-98h-460v98h22q47 0 74.5 13t58.5 55l371 491l-332 439q-48 66 -80 92q-42 35 -116 63z" />
<glyph unicode="Y" horiz-adv-x="1409" d="M20 1262v55h564v-98h-78q-28 0 -47 -13.5t-19 -40.5q0 -21 19 -51l299 -508l293 508q18 36 18 51q0 27 -19 40.5t-46 13.5h-78v98h463v-98h-31q-52 0 -79.5 -15.5t-55.5 -64.5l-389 -678v-221q0 -85 31.5 -113.5t99.5 -28.5h118v-98h-673v98h65q75 0 103 29t28 113v198 l-407 666q-39 62 -76.5 95.5t-102.5 62.5z" />
<glyph unicode="Z" horiz-adv-x="1224" d="M82 0v129l797 1090h-234q-81 0 -134 -4t-105.5 -16.5t-85 -36t-61 -62.5t-46 -95.5t-29.5 -136.5h-98v449h1051v-133l-797 -1086h356q90 0 152.5 22t101 68.5t60 106.5t34.5 149h99v-444h-1061z" />
<glyph unicode="[" horiz-adv-x="634" d="M164 -256v1573h409v-98h-153q-88 0 -88 -109v-1145q0 -25 3 -44.5t11 -38.5t25 -29.5t43 -10.5h159v-98h-409z" />
<glyph unicode="\" horiz-adv-x="745" d="M2 1317h113l628 -1317h-110z" />
<glyph unicode="]" horiz-adv-x="634" d="M61 -158h160q26 0 43 10.5t25 29.5t11 38.5t3 44.5v1145q0 109 -88 109h-154v98h410v-1573h-410v98z" />
<glyph unicode="^" horiz-adv-x="917" d="M51 879l311 438h193l311 -438h-127l-280 311l-281 -311h-127z" />
<glyph unicode="_" horiz-adv-x="851" d="M0 -164h852v-143h-852v143z" />
<glyph unicode="`" horiz-adv-x="819" d="M82 1659q0 9 6 14.5t14 5.5h224l274 -278h-117l-387 237q-14 7 -14 21z" />
<glyph unicode="a" horiz-adv-x="1161" d="M72 426q0 181 112 303.5t291 122.5q75 0 144 -24.5t112 -75.5l17 79h182v-587q0 -68 15 -100.5t56 -32.5q30 0 53.5 17t40 49.5t25.5 56t19 59.5l22 -4q-11 -140 -83.5 -224.5t-182.5 -84.5q-45 0 -85 27.5t-58 64.5q-5 16 -25 16q-15 0 -25 -10q-52 -54 -106 -76 t-131 -22q-128 0 -218.5 61t-132.5 160t-42 225zM279 446q0 -50 6.5 -96t24 -93.5t43.5 -82t69 -56.5t98 -22q97 0 155 72.5t58 171.5v102q0 79 -27.5 149t-87 117.5t-139.5 47.5q-58 0 -100 -29.5t-62.5 -78.5t-29 -98.5t-8.5 -103.5z" />
<glyph unicode="b" horiz-adv-x="1122" d="M10 1266v51h383v-592q88 127 266 127q185 0 288.5 -128t103.5 -331q0 -178 -115.5 -295.5t-286.5 -117.5q-199 0 -307 108q-9 12 -27 12q-12 0 -22.5 -7.5t-13.5 -18.5l-17 -74h-74v1098q0 59 -14.5 91.5t-58.5 45.5zM385 397q0 -35 8 -75.5t28 -85.5t49 -81t75 -59.5 t102 -23.5q197 0 197 293q0 43 -5.5 87t-22 95.5t-42 90.5t-70.5 65t-104 26t-103 -25t-67 -65t-34 -80.5t-11 -79.5v-82z" />
<glyph unicode="c" horiz-adv-x="962" d="M70 416q0 106 36 191t96.5 137.5t136 80t157.5 27.5q53 0 100 -8t93 -28t79 -51t53.5 -81t20.5 -113q0 -58 -32.5 -107.5t-90.5 -49.5q-50 0 -84.5 23.5t-34.5 78.5q0 49 37 74q23 16 49 16q16 0 33 -6q0 85 -60 122.5t-151 37.5q-55 0 -97 -22t-65 -54.5t-37.5 -79 t-19 -87t-4.5 -85.5q0 -76 17 -138t52.5 -111.5t96 -77t141.5 -27.5q75 0 146.5 42t125.5 113l27 -12q-56 -121 -161 -181t-232 -60q-70 0 -142.5 26.5t-137.5 77t-106.5 137.5t-41.5 195z" />
<glyph unicode="d" horiz-adv-x="1165" d="M72 438q0 178 115 296t286 118q78 0 147 -24.5t109 -75.5v346q0 58 -15.5 91t-58.5 46l-104 31v51h383v-1073q0 -67 15.5 -100t56.5 -33q24 0 44.5 13t34 30t26 45.5t18.5 46.5t14 47l22 -4q-11 -140 -83.5 -224.5t-182.5 -84.5q-46 0 -86.5 27.5t-56.5 64.5 q-8 16 -25 16t-24 -10q-89 -98 -244 -98q-185 0 -288 127.5t-103 330.5zM279 463q0 -43 5.5 -87t21.5 -95.5t41.5 -90t70.5 -64.5t104 -26t103 25t67 65t34 80.5t11 79.5v82q0 45 -14 97t-43 105t-82.5 87.5t-122.5 34.5q-196 0 -196 -293z" />
<glyph unicode="e" horiz-adv-x="958" d="M72 416q0 106 36 191t96.5 137.5t134.5 80t153 27.5q77 0 143 -21.5t119.5 -65.5t84.5 -119.5t31 -174.5q0 -48 -4 -72h-592q9 -169 86.5 -245t227.5 -76q75 0 146.5 42t125.5 113l27 -12q-56 -120 -162 -180.5t-233 -60.5q-55 0 -112 16t-112.5 51t-99 84.5t-70 123.5 t-26.5 161zM272 475h408q2 45 2 72q0 84 -44.5 145.5t-133.5 61.5q-118 0 -172 -71t-60 -208z" />
<glyph unicode="f" horiz-adv-x="768" d="M20 799v32h103q30 0 41.5 16t11.5 48v47q0 182 96 291.5t273 109.5q134 0 219.5 -58.5t85.5 -160.5q0 -43 -26.5 -74.5t-69.5 -31.5q-51 0 -82 23.5t-31 66.5q0 28 16 49.5t43 22.5q-5 28 -40 50.5t-78 22.5q-104 0 -152.5 -56t-48.5 -183v-183h223v-86h-223v-745h-205 v745z" />
<glyph unicode="g" horiz-adv-x="1046" d="M72 438q0 180 112.5 297t292.5 117q79 0 147 -26.5t109 -80.5l19 86h182v-618q0 -314 -111.5 -448t-382.5 -134q-50 0 -98 11t-92 33.5t-71 64t-27 96.5q0 40 29.5 68t74.5 28q44 0 75 -24.5t31 -63.5q0 -32 -14 -52t-31 -28q7 -18 51.5 -32.5t71.5 -14.5q283 0 283 314 v84q0 4 -5.5 5.5t-8.5 -1.5q-93 -99 -246 -99q-189 0 -290 110t-101 308zM279 463q0 -43 5.5 -83t21.5 -85t41.5 -77.5t70.5 -54.5t104 -22t103 25t67 65t34 80.5t11 79.5v41q0 45 -14 97t-43 105t-82.5 87.5t-122.5 34.5q-196 0 -196 -293z" />
<glyph unicode="h" horiz-adv-x="1216" d="M10 1266v51h383v-641q71 97 153 136.5t195 39.5q105 0 182.5 -64.5t77.5 -169.5q0 -55 -6 -186t-6 -188q0 -69 14 -101t54 -32q24 0 44.5 13t34 30t26 45.5t18.5 46.5t14 47l23 -4q-11 -140 -82 -224.5t-181 -84.5q-170 0 -170 256q0 51 6.5 156.5t6.5 156.5 q0 160 -156 160q-59 0 -104.5 -24.5t-71.5 -60.5t-43 -84t-23 -88.5t-6 -80.5v-371h-205v1098q0 58 -15 91t-58 46z" />
<glyph unicode="i" horiz-adv-x="634" d="M20 780v51h383v-587q0 -67 15.5 -100t56.5 -33q24 0 44.5 13t34 30t26 45.5t18.5 46.5t14 47l23 -4q-11 -140 -83.5 -224.5t-182.5 -84.5q-88 0 -129 63t-41 188v381q0 58 -15.5 91.5t-58.5 46.5zM147 1200q0 54 36.5 95.5t90.5 41.5t90.5 -41.5t36.5 -95.5 q0 -53 -36.5 -94t-90.5 -41t-90.5 41t-36.5 94z" />
<glyph unicode="j" horiz-adv-x="536" d="M-100 -160q0 36 27 61t71 25q40 0 68 -25.5t28 -60.5q0 -43 -41 -69q10 -27 40.5 -42.5t58.5 -15.5q48 0 80 40t32 91q0 37 -8 60t-17.5 31.5t-17.5 26.5t-8 46v604q0 58 -15 91t-59 47l-104 34v47h383v-720q0 -71 -2 -121.5t-8.5 -104t-18.5 -89.5t-32 -69.5t-48 -53 t-68 -31t-91 -11.5q-107 0 -178.5 52t-71.5 157zM168 1200q0 54 37.5 95.5t91.5 41.5q53 0 90 -41.5t37 -95.5q0 -52 -37 -93.5t-90 -41.5q-54 0 -91.5 41t-37.5 94z" />
<glyph unicode="k" horiz-adv-x="1216" d="M10 1266v51h383v-903l338 295q17 14 17 28q0 11 -9.5 19t-25.5 8h-33v67h432v-55l-35 -4q-83 -11 -129 -49l-209 -176q4 -9 23.5 -54.5t34 -76.5t39 -81.5t46.5 -84.5t47.5 -68.5t51 -52.5t49.5 -18t44.5 13t34 30t26 45.5t18.5 46.5t14 47l23 -4q-11 -140 -83.5 -224.5 t-182.5 -84.5q-38 0 -74.5 18.5t-68 56t-56.5 74t-51 93t-40.5 91t-35.5 88.5q-8 15 -20 15q-9 0 -15 -6l-170 -146v-264h-205v1098q0 58 -15 91t-58 46z" />
<glyph unicode="l" horiz-adv-x="624" d="M10 1266v51h383v-1073q0 -67 15.5 -100t56.5 -33q24 0 44.5 13t34 30t26 45.5t18.5 46.5t14 47l23 -4q-11 -140 -84 -224.5t-183 -84.5q-88 0 -129 63t-41 188v867q0 58 -15 91t-58 46z" />
<glyph unicode="m" horiz-adv-x="1777" d="M20 780v51h363l20 -155q72 98 147.5 137t186.5 39q89 0 156.5 -49.5t85.5 -134.5q64 103 139.5 143.5t198.5 40.5q103 0 174.5 -64t71.5 -170q0 -55 -6.5 -186t-6.5 -188q0 -69 14 -101t54 -32q24 0 44.5 13t34 30t26 45.5t18.5 46.5t14 47l23 -4q-11 -140 -81.5 -224.5 t-180.5 -84.5q-170 0 -170 256q0 51 6 156.5t6 156.5q0 35 -4 59.5t-17.5 49.5t-43 38t-74.5 13q-58 0 -102.5 -24.5t-69 -60t-40 -84.5t-20 -88.5t-4.5 -80.5v-371h-205v549q0 35 -4 59.5t-17.5 49.5t-43 38t-74.5 13q-58 0 -102.5 -24.5t-69 -60t-40 -84.5t-20 -88.5 t-4.5 -80.5v-371h-204v612q0 58 -15.5 91.5t-58.5 46.5z" />
<glyph unicode="n" horiz-adv-x="1226" d="M20 780v51h363l20 -155q71 97 153.5 136.5t195.5 39.5q105 0 182.5 -64.5t77.5 -169.5q0 -55 -6.5 -186t-6.5 -188q0 -69 14 -101t54 -32q24 0 44.5 13t34 30t26 45.5t18.5 46.5t14 47l23 -4q-11 -140 -81.5 -224.5t-180.5 -84.5q-170 0 -170 256q0 51 6 156.5t6 156.5 q0 160 -156 160q-59 0 -104.5 -24.5t-71.5 -60.5t-43 -84t-23 -88.5t-6 -80.5v-371h-204v612q0 58 -15.5 91.5t-58.5 46.5z" />
<glyph unicode="o" horiz-adv-x="1026" d="M72 414q0 104 38 189t101 138.5t140.5 82t160.5 28.5t161 -28.5t141 -82t101.5 -138.5t38.5 -189q0 -103 -38.5 -187.5t-102 -137t-141.5 -81t-160 -28.5t-159.5 28.5t-140.5 81t-101.5 137t-38.5 187.5zM272 455q0 -61 15 -125.5t44.5 -124t82 -97.5t118.5 -38 q61 0 106 28t69 75t35.5 99t11.5 109q0 61 -15.5 124.5t-46 122t-82.5 95.5t-118 37q-60 0 -104.5 -27.5t-69 -73.5t-35.5 -97t-11 -107z" />
<glyph unicode="p" horiz-adv-x="1132" d="M20 780v51h342l21 -77q2 -5 8 -9t12 -4q10 0 23 13q89 98 244 98q185 0 288 -128t103 -331q0 -178 -115.5 -295.5t-286.5 -117.5q-78 0 -147 24.5t-109 75.5v-230q0 -85 30.5 -113t98.5 -28h25v-57h-510v57h23q74 0 101.5 28.5t27.5 112.5v762q0 58 -15.5 91.5 t-58.5 46.5zM395 399q0 -45 14 -97t43 -104.5t82.5 -87t122.5 -34.5q197 0 197 293q0 56 -10 111.5t-34.5 115.5t-76 97.5t-123.5 37.5q-59 0 -103 -25t-67 -65t-34 -80.5t-11 -79.5v-82z" />
<glyph unicode="q" horiz-adv-x="1122" d="M72 438q0 177 118.5 295.5t290.5 118.5q190 0 299 -109q9 -12 27 -12q25 0 37 27l16 73h74v-981q0 -85 30.5 -113t98.5 -28h24v-57h-509v57h22q74 0 101.5 28.5t27.5 112.5v256q-91 -126 -266 -126q-185 0 -288 127.5t-103 330.5zM279 467q0 -43 5.5 -87t21.5 -96 t41.5 -90.5t70.5 -65t104 -26.5t103 25t67 65t34 80.5t11 79.5v82q0 45 -14 97.5t-43 105.5t-82.5 88t-122.5 35q-196 0 -196 -293z" />
<glyph unicode="r" horiz-adv-x="952" d="M10 780v51h363l14 -116q90 137 272 137q49 0 93.5 -10t83.5 -31.5t62.5 -60.5t23.5 -91q0 -53 -30.5 -88.5t-84.5 -35.5q-52 0 -87.5 26.5t-35.5 73.5q0 27 17 49t44 23q0 21 -30.5 38t-87.5 17q-62 0 -110.5 -47t-74 -117t-37.5 -135.5t-12 -118.5v-344h-205v612 q0 58 -15 91.5t-58 46.5z" />
<glyph unicode="s" horiz-adv-x="899" d="M76 170q0 37 28 62.5t66 25.5q46 0 76 -26t30 -70q0 -16 -8 -35.5t-20 -28.5q17 -14 76 -25.5t94 -11.5q239 0 239 103q0 38 -38 72t-69.5 47.5t-89.5 34.5q-11 4 -16 6q-134 47 -172 66q-129 63 -155 170q-8 32 -8 69q0 66 31 112.5t84 69t105.5 32t112.5 9.5 q52 0 105.5 -11t103.5 -32.5t81.5 -61t31.5 -90.5q0 -38 -24 -61t-62 -23q-43 0 -69.5 24t-26.5 67q0 25 16 49q-10 21 -52.5 39t-94.5 18q-185 0 -185 -94q0 -13 4.5 -25t10 -21.5t17.5 -19.5t20.5 -17t25 -16t26 -13.5t28.5 -12t26 -10t26.5 -9.5t22.5 -8q8 -3 46 -16 t49.5 -17t46 -18t48 -21.5t41.5 -24t40.5 -29.5t31 -33.5t26.5 -41t14.5 -47t6.5 -55.5q0 -67 -40 -117t-103.5 -75.5t-127 -37t-126.5 -11.5q-39 0 -80.5 4.5t-91 17.5t-88 33t-64.5 55t-26 80z" />
<glyph unicode="t" horiz-adv-x="673" d="M20 786v45h41q52 0 101 15.5t71 44.5q42 56 48 151l8 125h92v-336h211v-94h-211v-493q0 -67 15.5 -100t56.5 -33q24 0 44.5 13t34 30t26 45.5t18.5 46.5t14 47l22 -4q-11 -140 -83.5 -224.5t-182.5 -84.5q-88 0 -129 63t-41 188v506z" />
<glyph unicode="u" horiz-adv-x="1222" d="M20 780v51h383v-548q0 -34 5.5 -59.5t19.5 -50t44.5 -37.5t76.5 -13q49 0 88.5 16.5t64.5 45.5t42.5 62.5t26 74t12 73.5t3.5 66v370h205v-587q0 -67 15.5 -100t56.5 -33q24 0 44.5 13t34 30t26 45.5t18.5 46.5t14 47l23 -4q-11 -140 -84 -224.5t-183 -84.5 q-52 0 -93 33.5t-62 88.5q-7 17 -27 17q-14 0 -24 -10q-66 -72 -130 -100.5t-159 -28.5q-114 0 -188 66t-74 192v374q0 58 -15.5 91.5t-58.5 46.5z" />
<glyph unicode="v" horiz-adv-x="1030" d="M20 760v71h308l243 -686l209 547q6 15 6 29q0 19 -10 31t-28 12h-68v67h330v-67h-19q-20 0 -36 -6t-24.5 -11t-19 -23t-13 -25t-13.5 -33l-267 -666h-208l-232 627q-17 49 -34 71.5t-56 36.5z" />
<glyph unicode="w" horiz-adv-x="1667" d="M20 760v71h308l243 -686l209 547q6 15 6 29q0 19 -10 31t-28 12h-68v67h285l243 -686l209 547q6 15 6 29q0 19 -10.5 31t-28.5 12h-67v67h330v-67h-19q-20 0 -36 -6t-24.5 -11t-19 -23t-13 -25t-13.5 -33l-267 -666h-208l-205 557l-224 -557h-208l-232 627 q-17 49 -34 71.5t-56 36.5z" />
<glyph unicode="x" horiz-adv-x="1140" d="M55 0v70h43q11 0 21 2.5t21 9t17.5 10t18.5 15.5t15 15.5t16 18t14 15.5l228 254l-168 237q-40 57 -84 82t-127 47v55h309l250 -339l190 210q8 11 8 27q0 15 -13.5 25t-35.5 10h-43v67h350v-67h-36q-48 0 -93 -49l-270 -314l6 -10q25 -38 43.5 -65.5t53 -71.5t63.5 -72 t65 -49.5t68 -21.5q24 0 44.5 13t34 30t26 45.5t18.5 46.5t14 47l23 -4q-11 -141 -80 -225t-178 -84q-50 0 -105.5 32.5t-105 85.5t-90.5 111t-74 119l-184 -201q-6 -6 -6 -21q0 -36 51 -36h35v-70h-353z" />
<glyph unicode="y" horiz-adv-x="1060" d="M31 760v71h307l254 -712l219 573q6 15 6 29q0 19 -10.5 31t-28.5 12h-67v67h329v-67h-18q-25 0 -42 -6t-29.5 -23t-18 -28t-17.5 -41l-321 -799q-42 -107 -109.5 -167t-152.5 -60q-101 0 -169.5 52.5t-68.5 141.5q0 36 27 63t69 27q39 0 69 -21t30 -57q0 -54 -49 -71 q8 -24 30.5 -36.5t48.5 -12.5q84 0 140.5 76.5t56.5 191.5q0 29 -21 50.5t-57 25.5q-32 4 -51 31.5t-41 88.5l-158 437q-17 49 -34 71.5t-56 36.5z" />
<glyph unicode="z" horiz-adv-x="940" d="M82 0v145l561 607h-356q-60 0 -90 -40t-35 -104l-4 -57h-74v280h758v-172l-549 -579h373q60 0 90 40t35 103l4 58h73v-281h-786z" />
<glyph unicode="{" horiz-adv-x="745" d="M51 459v141h80q60 0 96.5 30t36.5 89v291q0 130 66.5 218.5t189.5 88.5h154v-98h-107q-71 0 -103 -46.5t-32 -121.5v-193q0 -62 -2 -99.5t-10 -79t-24.5 -64.5t-44 -43.5t-70 -28.5t-101.5 -8h-2v-11h2q59 0 101.5 -8t70 -28.5t44 -43.5t24.5 -64.5t10 -79t2 -99.5v-193 q0 -75 32 -121.5t103 -46.5h107v-98h-154q-123 0 -189.5 88.5t-66.5 218.5v291q0 59 -36.5 89t-96.5 30h-80z" />
<glyph unicode="|" horiz-adv-x="471" d="M184 -369v1817h103v-1817h-103z" />
<glyph unicode="}" horiz-adv-x="745" d="M72 -160h106q71 0 103 46.5t32 121.5v193q0 62 2 99.5t10 79t24.5 64.5t44 43.5t70 28.5t101.5 8h2v11h-2q-59 0 -101.5 8t-70 28.5t-44 43.5t-24.5 64.5t-10 79t-2 99.5v193q0 75 -32 121.5t-103 46.5h-106v98h153q123 0 189.5 -88.5t66.5 -218.5v-291q0 -59 36.5 -89 t96.5 -30h80v-141h-80q-60 0 -96.5 -30t-36.5 -89v-291q0 -130 -66.5 -218.5t-189.5 -88.5h-153v98z" />
<glyph unicode="~" horiz-adv-x="819" d="M59 899l7 82q2 57 17 105t51.5 84t88.5 36q51 0 82 -14.5t78 -50.5l125 -92q51 -39 94 -39q28 0 43 25.5t17 60.5l4 75h94l-6 -84q-2 -41 -11.5 -79t-27.5 -72t-48.5 -54t-70.5 -20q-47 0 -83.5 17t-84.5 53l-117 90q-54 41 -94 41q-28 0 -42.5 -26t-16.5 -62l-4 -76h-95 z" />
<glyph unicode="&#xa1;" horiz-adv-x="528" d="M156 -154q0 60 30.5 180.5t34.5 147.5q33 186 33 330v35h94v-35q0 -110 35 -330q4 -25 33.5 -146t29.5 -182q0 -49 -5.5 -84.5t-20.5 -67t-45 -47.5t-74 -16t-73.5 16t-44.5 47.5t-21 67t-6 84.5zM162 858q0 52 37 94.5t90 42.5t90 -42.5t37 -94.5t-36.5 -93.5 t-90.5 -41.5t-90.5 41.5t-36.5 93.5z" />
<glyph unicode="&#xa2;" horiz-adv-x="958" d="M72 575q0 103 34 186.5t90.5 136.5t127 82t147.5 32v141h86v-145q58 -6 106 -24t88.5 -50t63.5 -84t23 -121q0 -67 -30 -110.5t-89 -43.5q-123 0 -123 105q0 49 34.5 72t84.5 8q1 86 -59 123t-152 37q-58 0 -101 -20t-67 -51t-38.5 -76.5t-19 -87.5t-4.5 -93 q0 -161 77.5 -257.5t236.5 -96.5q75 0 146.5 42t125.5 113l27 -12q-49 -105 -135.5 -164.5t-194.5 -73.5v-163h-86v159q-69 4 -137 32.5t-128 79.5t-97 135.5t-37 188.5z" />
<glyph unicode="&#xa3;" horiz-adv-x="1218" d="M55 209q0 96 68.5 149.5t167.5 53.5q96 0 207 -52q-8 100 -41 181h-256v86h205q-95 110 -139 204.5t-44 194.5q0 77 29 136.5t72.5 93.5t104 55t114.5 28t112 7q81 0 159 -27t141.5 -76t102 -126.5t38.5 -170.5q0 -79 -38.5 -128.5t-113.5 -49.5q-63 0 -108 30.5 t-45 106.5q0 64 39.5 97t97.5 28l24 -2q-6 94 -83 150.5t-193 56.5q-132 0 -188 -61t-56 -193q0 -60 13 -121.5t27 -101t50 -131.5h299v-86h-266q9 -25 17 -70.5t8 -71.5v-69q228 -160 331 -160q50 0 88.5 17.5t62.5 51t38 67t26 79.5h17q0 -27 2 -49t2 -49 q0 -138 -60 -222.5t-186 -84.5q-52 0 -105.5 28.5t-85 59.5t-78.5 83.5t-63 67.5q-18 -99 -86 -169t-155 -70q-125 0 -199 54.5t-74 174.5zM160 207q0 -55 35.5 -95t117.5 -40q88 0 130 50.5t57 145.5l-26 12l-19.5 9t-10.5 6q-76 37 -129 37q-78 0 -116.5 -34t-38.5 -91z " />
<glyph unicode="&#xa4;" horiz-adv-x="1441" d="M20 510l31 82h127q-4 54 -4 80q0 41 2 59h-156l31 82h137q30 154 122.5 275.5t217 186t256.5 64.5q105 0 254 -55q62 -24 88 -24q30 0 55.5 16.5t37.5 44.5l6 18h88v-434h-78q-33 142 -153.5 229t-270.5 87q-85 0 -154.5 -34.5t-115.5 -94t-75 -129.5t-42 -150h512 l-31 -82h-489v-37q0 -69 4 -102h430l-31 -82h-389q34 -192 143 -302t295 -110q124 0 233 91.5t165 238.5l73 -25q-54 -194 -189.5 -310t-328.5 -116q-245 0 -417.5 139.5t-217.5 393.5h-166z" />
<glyph unicode="&#xa5;" horiz-adv-x="1490" d="M61 1262v55h564v-98h-78q-28 0 -47 -13.5t-19 -40.5q0 -21 19 -51l299 -508l293 508q18 36 18 51q0 27 -19 40.5t-47 13.5h-77v98h463v-98h-31q-52 0 -79.5 -15.5t-55.5 -64.5l-142 -248h189v-111h-252l-135 -237h387v-113h-437v-190q0 -85 32 -113.5t100 -28.5h118v-98 h-673v98h65q75 0 103 29t28 113v190h-495v113h432l-146 237h-286v111h219l-131 213q-39 62 -76.5 95.5t-102.5 62.5z" />
<glyph unicode="&#xa6;" />
<glyph unicode="&#xa7;" horiz-adv-x="997" d="M82 559q0 78 50 138.5t140 99.5q-83 57 -120 110t-37 133q0 71 36 127t95.5 88.5t128 49t139.5 16.5q84 0 161.5 -28t132 -88t54.5 -140q0 -51 -31.5 -82t-82.5 -31q-57 0 -95.5 29.5t-38.5 79.5q0 33 24 57.5t69 24.5q-69 106 -195 106q-73 0 -128.5 -38.5t-55.5 -108.5 q0 -36 15.5 -67.5t36 -52.5t56 -42.5t61.5 -33t67.5 -29t58.5 -25.5q124 -58 165 -85q126 -87 127 -218q0 -80 -56.5 -137t-162.5 -82q96 -65 132 -123t36 -144q0 -72 -32 -126t-87 -84.5t-120 -45t-140 -14.5q-90 0 -169 27t-133 86.5t-54 140.5q0 49 33.5 83t89.5 34 q60 0 92.5 -28.5t32.5 -82.5q0 -34 -24.5 -57t-67.5 -31q30 -53 84 -76.5t114 -23.5q47 0 88.5 12.5t73 47t31.5 85.5q0 28 -8.5 53t-21.5 44t-34.5 37t-41 30.5t-47.5 26.5t-48.5 23t-49 21t-44.5 19q-126 59 -166 85q-133 85 -133 210zM240 653q0 -25 12.5 -48.5 t29.5 -40.5t44.5 -35.5t45 -28.5t44.5 -23q163 -77 225 -112q104 41 104 106q0 100 -202 195q-17 8 -50 22.5t-52.5 23t-47 22.5t-49.5 28q-41 -15 -72.5 -42.5t-31.5 -66.5z" />
<glyph unicode="&#xa8;" horiz-adv-x="819" d="M96 1522q0 45 33 82.5t80 37.5q49 0 82 -37.5t33 -82.5t-33 -83t-80 -38q-49 0 -82 38t-33 83zM496 1522q0 45 32.5 82.5t81.5 37.5q47 0 80 -37.5t33 -82.5t-33 -83t-80 -38q-49 0 -81.5 38t-32.5 83z" />
<glyph unicode="&#xa9;" horiz-adv-x="1306" d="M102 600q0 149 73.5 275.5t200.5 200t277 73.5t277 -73.5t200.5 -200t73.5 -275.5q0 -112 -43.5 -214t-117.5 -176t-176 -117.5t-214 -43.5t-214 43.5t-176 117.5t-117.5 176t-43.5 214zM150 600q0 -137 67 -253.5t183 -184.5t253 -68t253 68t183.5 184.5t67.5 253.5 q0 136 -67.5 252t-183.5 184t-253 68t-253 -68t-183 -184t-67 -252zM385 600q0 128 84 213.5t190 85.5q45 0 115 -25q24 -12 39 -12q28 0 39 25l6 12h39v-194h-35q-15 64 -66 102.5t-116 38.5q-62 0 -105 -38.5t-60 -90t-17 -107.5q0 -124 48 -197t150 -73q57 0 106.5 41.5 t74.5 107.5l32 -10q-24 -88 -85 -140t-148 -52q-128 0 -209.5 82t-81.5 231z" />
<glyph unicode="&#xaa;" horiz-adv-x="890" d="M72 1014q0 135 84.5 227t218.5 92q130 0 192 -76l13 62h137v-442q0 -50 11.5 -74.5t41.5 -24.5q22 0 39.5 12.5t30.5 38t19 40.5t15 44l17 -2q-8 -104 -63 -167.5t-138 -63.5q-34 0 -63.5 20t-42.5 48q-5 12 -19 12q-12 0 -18 -6q-39 -41 -80 -57.5t-100 -16.5 q-142 0 -218.5 94.5t-76.5 239.5zM166 477v82h565v-82h-565zM229 1030q0 -48 8.5 -91.5t27.5 -84t56 -64.5t87 -24q74 0 117.5 54.5t43.5 129.5v76q0 94 -50.5 165t-141.5 71q-43 0 -74 -22t-46 -58.5t-21.5 -74t-6.5 -77.5z" />
<glyph unicode="&#xab;" horiz-adv-x="1193" d="M61 375v102l580 387v-86l-373 -352l373 -352v-86zM553 375v102l580 387v-86l-373 -352l373 -352v-86z" />
<glyph unicode="&#xac;" />
<glyph unicode="&#xad;" horiz-adv-x="616" d="M82 434v156h453v-156h-453z" />
<glyph unicode="&#xae;" horiz-adv-x="1132" d="M102 868q0 193 136.5 329t328.5 136t327.5 -136t135.5 -329q0 -192 -135.5 -327t-327.5 -135q-126 0 -233 61.5t-169.5 168t-62.5 232.5zM152 868q0 -170 121.5 -291.5t293.5 -121.5q171 0 292.5 121.5t121.5 291.5q0 172 -121 294t-293 122t-293.5 -122t-121.5 -294z M332 1092v26h219q43 0 75.5 -4.5t69 -17t56.5 -42t20 -73.5q0 -47 -38.5 -79t-102.5 -38q41 -4 66 -27t32 -53q1 -4 3.5 -17t4 -19.5t4.5 -18t6 -17.5t8 -13t11 -10t14 -3q23 0 33.5 17t15.5 55h11v-21q0 -52 -29 -82t-76 -30q-64 0 -76 116q-7 50 -37.5 83.5t-86.5 33.5 h-52v-137q0 -55 37 -55h25v-37h-203v37h8q28 0 38.5 10.5t10.5 40.5v303q0 47 -34 59zM483 895h82q54 0 87.5 24.5t33.5 65.5q0 38 -29 67t-86 29h-49q-39 0 -39 -51v-135z" />
<glyph unicode="&#xaf;" horiz-adv-x="819" d="M141 1438v84h537v-84h-537z" />
<glyph unicode="&#xb0;" horiz-adv-x="825" d="M82 1176q0 114 96.5 203t235.5 89q137 0 233 -89t96 -203q0 -112 -96 -201.5t-233 -89.5q-138 0 -235 89t-97 202zM223 1188q0 -95 52.5 -165.5t144.5 -70.5q85 0 134.5 62.5t49.5 150.5q0 95 -52.5 165.5t-143.5 70.5q-87 0 -136 -62t-49 -151z" />
<glyph unicode="&#xb1;" />
<glyph unicode="&#xb2;" />
<glyph unicode="&#xb3;" />
<glyph unicode="&#xb4;" horiz-adv-x="819" d="M260 1401l275 278h223q20 0 20 -18q0 -15 -14 -23l-387 -237h-117z" />
<glyph unicode="&#xb5;" horiz-adv-x="1284" d="M20 780v51h381v-548q0 -64 43 -102t134 -38q59 0 104.5 22t72 55.5t43.5 78t23 84t6 78.5v370h205v-587q0 -67 15.5 -100t56.5 -33q24 0 44.5 13t34 30t26 45.5t18.5 46.5t14 47l23 -4q-11 -140 -84 -224.5t-183 -84.5q-52 0 -93 33.5t-62 88.5q-7 17 -27 17 q-14 0 -24 -10q-64 -70 -138 -99.5t-172 -29.5q-44 0 -80 8v-357l-202 111v870q0 58 -15.5 91.5t-58.5 46.5z" />
<glyph unicode="&#xb6;" horiz-adv-x="1345" d="M72 940q0 94 40.5 168t107.5 118.5t147 67.5t165 23h773v-57l-101 -27q-52 -14 -66 -46t-14 -97v-1295h-153v1366q0 35 -19 56.5t-53 21.5q-72 0 -72 -78v-1366h-155v740h-168q-178 0 -305 112.5t-127 292.5zM326 920q0 -83 20 -145.5t70 -104t127 -41.5h129v465 q0 64 -17 88q-37 53 -82 53h-51q-67 0 -113.5 -52.5t-64.5 -121t-18 -141.5z" />
<glyph unicode="&#xb7;" horiz-adv-x="397" d="M72 649q0 52 37 94.5t90 42.5t90 -42.5t37 -94.5t-36.5 -93.5t-90.5 -41.5t-90.5 41.5t-36.5 93.5z" />
<glyph unicode="&#xb8;" horiz-adv-x="819" d="M134.5 -323q-3.5 15 12.5 26l388 238h116l-274 -279h-223q-16 0 -19.5 15z" />
<glyph unicode="&#xb9;" />
<glyph unicode="&#xba;" horiz-adv-x="804" d="M72 1006q0 77 28.5 140.5t75.5 103.5t105 61.5t120 21.5t120.5 -21.5t106 -61.5t76.5 -103.5t29 -140.5q0 -103 -50 -179.5t-124 -112.5t-158 -36q-131 0 -230 88t-99 240zM121 477v82h565v-82h-565zM221 1032q0 -63 19 -125t66 -110.5t112 -48.5q60 0 99 37t53 86 t14 108q0 46 -11.5 93.5t-34.5 91.5t-62.5 72t-88.5 28q-45 0 -79 -21t-52 -56t-26.5 -73.5t-8.5 -81.5z" />
<glyph unicode="&#xbb;" horiz-adv-x="1193" d="M61 -12v86l373 352l-373 352v86l580 -387v-102zM553 -12v86l373 352l-373 352v86l580 -387v-102z" />
<glyph unicode="&#xbc;" />
<glyph unicode="&#xbd;" />
<glyph unicode="&#xbe;" />
<glyph unicode="&#xbf;" horiz-adv-x="954" d="M127 -61q0 71 22 126.5t57.5 92t78.5 66.5t85.5 56.5t78 55.5t57.5 71t22 95v39h90v-82q0 -49 -17 -91t-44.5 -73t-60 -60.5t-65.5 -59.5t-60.5 -62t-44.5 -75.5t-17 -94.5q0 -102 60 -164t170 -62q116 0 179.5 51.5t63.5 139.5q-12 -2 -32 -2q-53 0 -87 25.5t-34 76.5 q0 31 12 54t29.5 34.5t33.5 17t29 5.5q80 0 120 -55.5t40 -141.5q0 -76 -34.5 -134t-91.5 -91t-121.5 -49.5t-133.5 -16.5q-71 0 -136 17t-122.5 51.5t-92 96.5t-34.5 143zM424 852q0 52 37 94.5t90 42.5t90 -42.5t37 -94.5t-36.5 -93.5t-90.5 -41.5t-90.5 41.5t-36.5 93.5z " />
<glyph unicode="&#xc0;" horiz-adv-x="1462" d="M31 0v100h45q23 0 38.5 6t27 21t17 26.5t15.5 36.5l444 1127h250l400 -1102q11 -29 16.5 -42.5t19 -34t31.5 -29.5t43 -9h54v-100h-551v100h88q63 0 63 47q0 22 -10 52l-64 180h-571l-65 -170q-9 -24 -9 -43q0 -32 23.5 -49t64.5 -17h88v-100h-458zM307 1679q0 9 6.5 15 t14.5 6h223l274 -279h-116l-387 238q-15 7 -15 20zM426 477h500l-238 682z" />
<glyph unicode="&#xc1;" horiz-adv-x="1462" d="M31 0v100h45q23 0 38.5 6t27 21t17 26.5t15.5 36.5l444 1127h250l400 -1102q11 -29 16.5 -42.5t19 -34t31.5 -29.5t43 -9h54v-100h-551v100h88q63 0 63 47q0 22 -10 52l-64 180h-571l-65 -170q-9 -24 -9 -43q0 -32 23.5 -49t64.5 -17h88v-100h-458zM426 477h500l-238 682 zM649 1421l275 279h223q9 0 14.5 -5.5t5.5 -13.5q0 -14 -14 -22l-387 -238h-117z" />
<glyph unicode="&#xc2;" horiz-adv-x="1462" d="M31 0v100h45q23 0 38.5 6t27 21t17 26.5t15.5 36.5l444 1127h250l400 -1102q11 -29 16.5 -42.5t19 -34t31.5 -29.5t43 -9h54v-100h-551v100h88q63 0 63 47q0 22 -10 52l-64 180h-571l-65 -170q-9 -24 -9 -43q0 -32 23.5 -49t64.5 -17h88v-100h-458zM381 1386l264 314h184 l265 -314h-86l-271 220l-270 -220h-86zM426 477h500l-238 682z" />
<glyph unicode="&#xc3;" horiz-adv-x="1462" d="M31 0v100h45q23 0 38.5 6t27 21t17 26.5t15.5 36.5l444 1127h250l400 -1102q11 -29 16.5 -42.5t19 -34t31.5 -29.5t43 -9h54v-100h-551v100h88q63 0 63 47q0 22 -10 52l-64 180h-571l-65 -170q-9 -24 -9 -43q0 -32 23.5 -49t64.5 -17h88v-100h-458zM410 1434l4 75 q3 51 17.5 93.5t47 73t78.5 30.5q24 0 45 -5.5t32 -11.5t34 -21t34 -21l113 -68q8 -4 22 -13t21.5 -13t19 -7.5t23.5 -3.5q51 0 55 72l5 67h83l-4 -75q-5 -82 -40 -139.5t-103 -57.5q-15 0 -30 3t-24.5 5.5t-26.5 11.5t-22.5 12t-26 16t-24.5 16l-106 65q-7 4 -21 13t-21 13 t-18.5 7.5t-23.5 3.5q-51 0 -55 -72l-4 -69h-84zM426 477h500l-238 682z" />
<glyph unicode="&#xc4;" horiz-adv-x="1462" d="M31 0v100h45q23 0 38.5 6t27 21t17 26.5t15.5 36.5l444 1127h250l400 -1102q11 -29 16.5 -42.5t19 -34t31.5 -29.5t43 -9h54v-100h-551v100h88q63 0 63 47q0 22 -10 52l-64 180h-571l-65 -170q-9 -24 -9 -43q0 -32 23.5 -49t64.5 -17h88v-100h-458zM426 477h500l-238 682 zM430 1542q0 45 33 83t80 38q49 0 81.5 -38t32.5 -83t-32.5 -83t-79.5 -38q-49 0 -82 38t-33 83zM829 1542q0 45 33 83t82 38q47 0 80 -38t33 -83t-33 -83t-80 -38q-49 0 -82 38t-33 83z" />
<glyph unicode="&#xc5;" horiz-adv-x="1462" d="M31 0v100h45q23 0 38.5 6t27 21t17 26.5t15.5 36.5l418 1059q-51 35 -82 89.5t-31 111.5q0 97 77.5 174.5t186.5 77.5t187 -77.5t78 -174.5q0 -57 -31 -111.5t-84 -91.5l375 -1032q11 -29 16.5 -42.5t19 -34t31.5 -29.5t43 -9h54v-100h-551v100h88q63 0 63 47 q0 22 -10 52l-64 180h-571l-65 -170q-9 -24 -9 -43q0 -32 23.5 -49t64.5 -17h88v-100h-458zM426 477h500l-238 682zM571 1450q0 -67 48 -118.5t124 -51.5t124 51.5t48 118.5q0 68 -48 120t-124 52t-124 -52t-48 -120z" />
<glyph unicode="&#xc6;" horiz-adv-x="2205" d="M20 0v98h48q79 0 141 90l735 1129h1108v-426h-90q-12 80 -32 136.5t-56 102t-95 67.5t-141 22h-231q-67 0 -96 -31.5t-29 -108.5v-350h186q101 0 101 152v49h102v-529h-102v50q0 151 -101 151h-186v-362q0 -85 30.5 -113.5t98.5 -28.5h252q294 0 301 363h98v-461h-1159 v98h23q74 0 101.5 29t27.5 113v180h-535l-139 -213q-27 -46 -27 -68q0 -41 60 -41h90v-98h-484zM584 518h471v625q0 15 -7 25t-18 10q-18 0 -29 -19z" />
<glyph unicode="&#xc7;" horiz-adv-x="1370" d="M102 672q0 144 53.5 271t140 212.5t196 134.5t221.5 49q105 0 254 -55q62 -24 88 -24q28 0 53 16t37 43q5 7 8 20h88v-440h-78q-33 142 -154 232t-270 90q-101 0 -178 -48.5t-120.5 -127.5t-65 -168t-21.5 -183q0 -131 25 -237t76.5 -188t138.5 -126.5t203 -44.5 q124 0 232.5 91.5t164.5 238.5l74 -25q-54 -194 -189.5 -310t-328.5 -116q-138 0 -256 46t-205.5 132t-137 219t-49.5 298zM319 -323q-3 15 13 26l387 238h117l-275 -279h-223q-16 0 -19 15z" />
<glyph unicode="&#xc8;" horiz-adv-x="1392" d="M61 1266v51h1178v-426h-90q-12 80 -32 136.5t-56 102t-95 67.5t-141 22h-231q-67 0 -96 -31.5t-29 -108.5v-350h186q101 0 101 152v49h102v-529h-102v50q0 151 -101 151h-186v-362q0 -85 30.5 -113.5t98.5 -28.5h252q294 0 301 363h98v-461h-1161v98h23q74 0 101.5 29 t27.5 113v837q0 54 -25 97.5t-70 60.5zM342 1679q0 9 6 15t14 6h224l274 -279h-117l-387 238q-14 7 -14 20z" />
<glyph unicode="&#xc9;" horiz-adv-x="1392" d="M61 1266v51h1178v-426h-90q-12 80 -32 136.5t-56 102t-95 67.5t-141 22h-231q-67 0 -96 -31.5t-29 -108.5v-350h186q101 0 101 152v49h102v-529h-102v50q0 151 -101 151h-186v-362q0 -85 30.5 -113.5t98.5 -28.5h252q294 0 301 363h98v-461h-1161v98h23q74 0 101.5 29 t27.5 113v837q0 54 -25 97.5t-70 60.5zM567 1421l275 279h223q9 0 14.5 -5.5t5.5 -13.5q0 -14 -14 -22l-387 -238h-117z" />
<glyph unicode="&#xca;" horiz-adv-x="1392" d="M61 1266v51h1178v-426h-90q-12 80 -32 136.5t-56 102t-95 67.5t-141 22h-231q-67 0 -96 -31.5t-29 -108.5v-350h186q101 0 101 152v49h102v-529h-102v50q0 151 -101 151h-186v-362q0 -85 30.5 -113.5t98.5 -28.5h252q294 0 301 363h98v-461h-1161v98h23q74 0 101.5 29 t27.5 113v837q0 54 -25 97.5t-70 60.5zM360 1407l265 313h184l264 -313h-86l-270 219l-271 -219h-86z" />
<glyph unicode="&#xcb;" horiz-adv-x="1392" d="M61 1266v51h1178v-426h-90q-12 80 -32 136.5t-56 102t-95 67.5t-141 22h-231q-67 0 -96 -31.5t-29 -108.5v-350h186q101 0 101 152v49h102v-529h-102v50q0 151 -101 151h-186v-362q0 -85 30.5 -113.5t98.5 -28.5h252q294 0 301 363h98v-461h-1161v98h23q74 0 101.5 29 t27.5 113v837q0 54 -25 97.5t-70 60.5zM389 1542q0 45 33 83t80 38q49 0 81.5 -38t32.5 -83t-32.5 -83t-79.5 -38q-49 0 -82 38t-33 83zM788 1542q0 45 33 83t82 38q47 0 80 -38t33 -83t-33 -83t-80 -38q-49 0 -82 38t-33 83z" />
<glyph unicode="&#xcc;" horiz-adv-x="722" d="M-51 1679q0 9 6 15t14 6h224l274 -279h-117l-387 238q-14 7 -14 20zM57 1245v72h561v-98h-28q-67 0 -96 -31.5t-29 -108.5v-839q0 -85 31 -113.5t98 -28.5h68v-98h-578v98h22q74 0 102 29t28 113v817q0 54 -25 97t-70 60z" />
<glyph unicode="&#xcd;" horiz-adv-x="747" d="M61 1245v72h562v-98h-29q-67 0 -96 -31.5t-29 -108.5v-839q0 -85 31 -113.5t98 -28.5h68v-98h-578v98h23q74 0 101.5 29t27.5 113v817q0 54 -25 97t-70 60zM219 1421l275 279h223q9 0 14.5 -5.5t5.5 -13.5q0 -14 -14 -22l-387 -238h-117z" />
<glyph unicode="&#xce;" horiz-adv-x="735" d="M-18 1407l264 313h184l264 -313h-86l-270 219l-270 -219h-86zM61 1245v72h562v-98h-29q-67 0 -96 -31.5t-29 -108.5v-839q0 -85 31 -113.5t98 -28.5h68v-98h-578v98h23q74 0 101.5 29t27.5 113v817q0 54 -25 97t-70 60z" />
<glyph unicode="&#xcf;" horiz-adv-x="747" d="M33 1542q0 45 32.5 83t79.5 38q49 0 82 -38t33 -83t-33 -83t-80 -38q-49 0 -81.5 38t-32.5 83zM61 1245v72h562v-98h-29q-67 0 -96 -31.5t-29 -108.5v-839q0 -85 31 -113.5t98 -28.5h68v-98h-578v98h23q74 0 101.5 29t27.5 113v817q0 54 -25 97t-70 60zM432 1542 q0 45 33 83t82 38q47 0 79.5 -38t32.5 -83t-32.5 -83t-79.5 -38q-49 0 -82 38t-33 83z" />
<glyph unicode="&#xd0;" horiz-adv-x="1546" d="M61 1266v51h619q127 0 232 -17t206.5 -63.5t171 -119.5t112 -193t42.5 -277q0 -126 -40.5 -233t-109.5 -182t-160.5 -128t-193 -78.5t-207.5 -25.5h-645v98h23q74 0 101.5 29t27.5 113v395h-146v94h146v348q0 54 -25 97.5t-70 60.5zM469 240q0 -92 28 -117t121 -25h97 q114 0 206.5 45t152 121t91 174t31.5 207q0 170 -56.5 301t-173 209t-278.5 78h-94q-125 0 -125 -141v-363h227v-94h-227v-395z" />
<glyph unicode="&#xd1;" horiz-adv-x="1490" d="M61 1255v62h416l658 -981v741q0 85 -31 113.5t-98 28.5h-88v98h512v-98h-23q-74 0 -101.5 -29t-27.5 -113v-1077h-201l-694 1057v-817q0 -85 30.5 -113.5t98.5 -28.5h98v-98h-522v98h23q74 0 101.5 29t27.5 113v817q0 52 -25.5 93.5t-69.5 63.5zM440 1434l4 75 q3 51 17.5 93.5t47.5 73t79 30.5q24 0 45 -5.5t32 -11.5t34 -21t34 -21l113 -68q8 -4 22 -13t21.5 -13t19 -7.5t23.5 -3.5q51 0 55 72l4 67h84l-4 -75q-5 -82 -40 -139.5t-103 -57.5q-15 0 -30 3t-24.5 5.5t-26.5 11.5t-22.5 12t-26 16t-24.5 16l-106 65q-7 4 -21 13t-21 13 t-18.5 7.5t-23.5 3.5q-52 0 -56 -72l-4 -69h-84z" />
<glyph unicode="&#xd2;" horiz-adv-x="1523" d="M102 657q0 129 37.5 241t101.5 191.5t148.5 136.5t179.5 85t193 28q124 0 240 -45t210.5 -128.5t151.5 -216t57 -292.5q0 -129 -37.5 -240t-101.5 -190.5t-148 -136.5t-179 -85t-193 -28t-193 28t-179.5 85t-148.5 136.5t-101.5 190.5t-37.5 240zM350 711 q0 -76 16 -159.5t52 -168t86.5 -151.5t126 -109.5t164.5 -42.5q83 0 150 33.5t108.5 86.5t69.5 124t39.5 141.5t11.5 142.5q0 76 -16 159.5t-52 168t-86.5 151.5t-126 109.5t-164.5 42.5q-83 0 -150 -33.5t-108.5 -86.5t-69.5 -124t-39.5 -141.5t-11.5 -142.5zM387 1679 q0 9 6.5 15t14.5 6h223l274 -279h-117l-387 238q-14 7 -14 20z" />
<glyph unicode="&#xd3;" horiz-adv-x="1523" d="M102 657q0 129 37.5 241t101.5 191.5t148.5 136.5t179.5 85t193 28q124 0 240 -45t210.5 -128.5t151.5 -216t57 -292.5q0 -129 -37.5 -240t-101.5 -190.5t-148 -136.5t-179 -85t-193 -28t-193 28t-179.5 85t-148.5 136.5t-101.5 190.5t-37.5 240zM350 711 q0 -76 16 -159.5t52 -168t86.5 -151.5t126 -109.5t164.5 -42.5q83 0 150 33.5t108.5 86.5t69.5 124t39.5 141.5t11.5 142.5q0 76 -16 159.5t-52 168t-86.5 151.5t-126 109.5t-164.5 42.5q-83 0 -150 -33.5t-108.5 -86.5t-69.5 -124t-39.5 -141.5t-11.5 -142.5zM608 1421 l275 279h223q9 0 14.5 -5.5t5.5 -13.5q0 -14 -14 -22l-387 -238h-117z" />
<glyph unicode="&#xd4;" horiz-adv-x="1523" d="M102 657q0 129 37.5 241t101.5 191.5t148.5 136.5t179.5 85t193 28q124 0 240 -45t210.5 -128.5t151.5 -216t57 -292.5q0 -129 -37.5 -240t-101.5 -190.5t-148 -136.5t-179 -85t-193 -28t-193 28t-179.5 85t-148.5 136.5t-101.5 190.5t-37.5 240zM350 711 q0 -76 16 -159.5t52 -168t86.5 -151.5t126 -109.5t164.5 -42.5q83 0 150 33.5t108.5 86.5t69.5 124t39.5 141.5t11.5 142.5q0 76 -16 159.5t-52 168t-86.5 151.5t-126 109.5t-164.5 42.5q-83 0 -150 -33.5t-108.5 -86.5t-69.5 -124t-39.5 -141.5t-11.5 -142.5zM403 1407 l265 313h184l264 -313h-86l-270 219l-271 -219h-86z" />
<glyph unicode="&#xd5;" horiz-adv-x="1523" d="M102 657q0 129 37.5 241t101.5 191.5t148.5 136.5t179.5 85t193 28q124 0 240 -45t210.5 -128.5t151.5 -216t57 -292.5q0 -129 -37.5 -240t-101.5 -190.5t-148 -136.5t-179 -85t-193 -28t-193 28t-179.5 85t-148.5 136.5t-101.5 190.5t-37.5 240zM350 711 q0 -76 16 -159.5t52 -168t86.5 -151.5t126 -109.5t164.5 -42.5q83 0 150 33.5t108.5 86.5t69.5 124t39.5 141.5t11.5 142.5q0 76 -16 159.5t-52 168t-86.5 151.5t-126 109.5t-164.5 42.5q-83 0 -150 -33.5t-108.5 -86.5t-69.5 -124t-39.5 -141.5t-11.5 -142.5zM467 1434 l4 75q3 51 17.5 93.5t47 73t78.5 30.5q24 0 45.5 -6t32 -11t34.5 -20.5t34 -21.5l112 -68q8 -4 22 -13t21.5 -13t19 -7.5t23.5 -3.5q26 0 40 20t16 52l4 67h84l-4 -75q-5 -82 -40.5 -139.5t-103.5 -57.5q-15 0 -29.5 3t-24.5 6t-26 11t-22.5 12t-25.5 16t-25 16l-107 65 q-7 4 -21 13t-21 13t-18.5 7.5t-23.5 3.5q-51 0 -55 -72l-4 -69h-84z" />
<glyph unicode="&#xd6;" horiz-adv-x="1523" d="M102 657q0 129 37.5 241t101.5 191.5t148.5 136.5t179.5 85t193 28q124 0 240 -45t210.5 -128.5t151.5 -216t57 -292.5q0 -129 -37.5 -240t-101.5 -190.5t-148 -136.5t-179 -85t-193 -28t-193 28t-179.5 85t-148.5 136.5t-101.5 190.5t-37.5 240zM350 711 q0 -76 16 -159.5t52 -168t86.5 -151.5t126 -109.5t164.5 -42.5q83 0 150 33.5t108.5 86.5t69.5 124t39.5 141.5t11.5 142.5q0 76 -16 159.5t-52 168t-86.5 151.5t-126 109.5t-164.5 42.5q-83 0 -150 -33.5t-108.5 -86.5t-69.5 -124t-39.5 -141.5t-11.5 -142.5zM453 1542 q0 45 32.5 83t79.5 38q49 0 82 -38t33 -83t-33 -83t-80 -38q-49 0 -81.5 38t-32.5 83zM852 1542q0 45 33 83t82 38q47 0 79.5 -38t32.5 -83t-32.5 -83t-79.5 -38q-49 0 -82 38t-33 83z" />
<glyph unicode="&#xd7;" />
<glyph unicode="&#xd8;" horiz-adv-x="1564" d="M94 0l191 201q-162 187 -162 456q0 160 57 292.5t151.5 216t210.5 128.5t240 45q115 0 227 -39.5t203 -115.5l125 133h133l-190 -201q162 -187 162 -459q0 -129 -37.5 -240t-101.5 -190.5t-148.5 -136.5t-179.5 -85t-193 -28q-117 0 -228.5 40t-201.5 116l-127 -133h-131 zM371 711q0 -172 73 -340l629 667q-126 201 -323 201q-84 0 -151 -33.5t-108.5 -86.5t-69.5 -124.5t-39 -141.5t-11 -142zM492 281q126 -201 323 -201q83 0 150 33.5t108.5 86.5t69.5 124t39.5 141.5t11.5 142.5q0 169 -74 340z" />
<glyph unicode="&#xd9;" horiz-adv-x="1361" d="M31 1245v72h561v-98h-29q-67 0 -96 -31.5t-29 -108.5v-719q0 -103 80 -170t213 -67q146 0 224.5 79.5t78.5 190.5v686q0 77 -29 108.5t-96 31.5h-28v98h450v-98h-28q-67 0 -96 -31.5t-29 -108.5v-643q0 -72 -15 -136t-50.5 -123.5t-89 -102.5t-137 -68.5t-188.5 -25.5 q-129 0 -225.5 36t-153 101t-83.5 146.5t-27 180.5v613q0 54 -24.5 97t-69.5 60zM299 1679q0 9 6 15t14 6h224l274 -279h-117l-387 238q-14 7 -14 20z" />
<glyph unicode="&#xda;" horiz-adv-x="1361" d="M31 1245v72h561v-98h-29q-67 0 -96 -31.5t-29 -108.5v-719q0 -103 80 -170t213 -67q146 0 224.5 79.5t78.5 190.5v686q0 77 -29 108.5t-96 31.5h-28v98h450v-98h-28q-67 0 -96 -31.5t-29 -108.5v-643q0 -72 -15 -136t-50.5 -123.5t-89 -102.5t-137 -68.5t-188.5 -25.5 q-129 0 -225.5 36t-153 101t-83.5 146.5t-27 180.5v613q0 54 -24.5 97t-69.5 60zM629 1421l274 279h223q9 0 15 -5.5t6 -13.5q0 -14 -14 -22l-388 -238h-116z" />
<glyph unicode="&#xdb;" horiz-adv-x="1361" d="M31 1245v72h561v-98h-29q-67 0 -96 -31.5t-29 -108.5v-719q0 -103 80 -170t213 -67q146 0 224.5 79.5t78.5 190.5v686q0 77 -29 108.5t-96 31.5h-28v98h450v-98h-28q-67 0 -96 -31.5t-29 -108.5v-643q0 -72 -15 -136t-50.5 -123.5t-89 -102.5t-137 -68.5t-188.5 -25.5 q-129 0 -225.5 36t-153 101t-83.5 146.5t-27 180.5v613q0 54 -24.5 97t-69.5 60zM371 1407l264 313h184l264 -313h-86l-270 219l-270 -219h-86z" />
<glyph unicode="&#xdc;" horiz-adv-x="1361" d="M31 1245v72h561v-98h-29q-67 0 -96 -31.5t-29 -108.5v-719q0 -103 80 -170t213 -67q146 0 224.5 79.5t78.5 190.5v686q0 77 -29 108.5t-96 31.5h-28v98h450v-98h-28q-67 0 -96 -31.5t-29 -108.5v-643q0 -72 -15 -136t-50.5 -123.5t-89 -102.5t-137 -68.5t-188.5 -25.5 q-129 0 -225.5 36t-153 101t-83.5 146.5t-27 180.5v613q0 54 -24.5 97t-69.5 60zM410 1542q0 45 32.5 83t79.5 38q49 0 82 -38t33 -83t-33 -83t-80 -38q-49 0 -81.5 38t-32.5 83zM809 1542q0 45 33 83t82 38q47 0 79.5 -38t32.5 -83t-32.5 -83t-79.5 -38q-49 0 -82 38 t-33 83z" />
<glyph unicode="&#xdd;" horiz-adv-x="1409" d="M20 1262v55h564v-98h-78q-28 0 -47 -13.5t-19 -40.5q0 -21 19 -51l299 -508l293 508q18 36 18 51q0 27 -19 40.5t-46 13.5h-78v98h463v-98h-31q-52 0 -79.5 -15.5t-55.5 -64.5l-389 -678v-221q0 -85 31.5 -113.5t99.5 -28.5h118v-98h-673v98h65q75 0 103 29t28 113v198 l-407 666q-39 62 -76.5 95.5t-102.5 62.5zM684 1421l274 279h224q9 0 14.5 -5.5t5.5 -13.5q0 -14 -14 -22l-387 -238h-117z" />
<glyph unicode="&#xde;" horiz-adv-x="1361" d="M61 1245v72h373l35 -143h215q68 0 123 -3t120 -13t114.5 -27t98.5 -47.5t80 -71.5t50.5 -102t19.5 -136q0 -88 -34.5 -155.5t-87.5 -107t-127.5 -64t-144 -33t-146.5 -8.5h-281v-166q0 -85 30.5 -113.5t98.5 -28.5h119v-98h-629v98h23q74 0 101.5 29t27.5 113v817 q0 54 -25 97t-70 60zM469 506h236q162 0 247.5 72.5t85.5 191.5q0 125 -89.5 215t-221.5 90h-133q-67 0 -96 -31t-29 -108v-430z" />
<glyph unicode="&#xdf;" horiz-adv-x="1318" d="M61 768v39h50q49 0 81.5 22t32.5 66v55q0 179 107.5 283t283.5 104q224 0 353 -124t129 -365q0 -103 -2 -154h-78q-9 29 -38 58.5t-75 29.5q-30 0 -59 -5t-58.5 -15.5t-47 -33t-17.5 -52.5q0 -24 14 -45.5t29.5 -35t48 -29.5t47 -21.5t48.5 -17.5q5 -2 8 -3q7 -3 22 -8 q139 -47 195 -86q111 -77 112 -209q0 -55 -24.5 -98t-62.5 -69t-88.5 -43.5t-98 -24t-96.5 -6.5q-38 0 -77.5 4.5t-85 17.5t-80.5 33t-58 55t-23 80q0 37 28 62.5t66 25.5q46 0 76.5 -26t30.5 -70q0 -16 -8.5 -35.5t-20.5 -28.5q18 -14 64 -25.5t79 -11.5q213 0 213 103 q0 26 -14 49t-31.5 38t-48.5 31t-49 23.5t-49 18.5q-8 3 -25 9q-135 47 -189 84q-110 75 -110 212q0 66 32 112.5t85.5 69t107 32t113.5 9.5h82q4 53 4 76q0 63 -22 121.5t-63.5 108t-110 79t-154.5 29.5q-44 0 -78 -13t-56.5 -32t-38 -52.5t-23 -61.5t-12 -74t-5 -74 t-0.5 -76v-883h-201v713z" />
<glyph unicode="&#xe0;" horiz-adv-x="1161" d="M72 426q0 181 112 303.5t291 122.5q75 0 144 -24.5t112 -75.5l17 79h182v-587q0 -68 15 -100.5t56 -32.5q30 0 53.5 17t40 49.5t25.5 56t19 59.5l22 -4q-11 -140 -83.5 -224.5t-182.5 -84.5q-45 0 -85 27.5t-58 64.5q-5 16 -25 16q-15 0 -25 -10q-52 -54 -106 -76 t-131 -22q-128 0 -218.5 61t-132.5 160t-42 225zM184 1229q0 9 6.5 14.5t14.5 5.5h223l274 -278h-116l-387 237q-15 8 -15 21zM279 446q0 -50 6.5 -96t24 -93.5t43.5 -82t69 -56.5t98 -22q97 0 155 72.5t58 171.5v102q0 79 -27.5 149t-87 117.5t-139.5 47.5 q-58 0 -100 -29.5t-62.5 -78.5t-29 -98.5t-8.5 -103.5z" />
<glyph unicode="&#xe1;" horiz-adv-x="1161" d="M72 426q0 181 112 303.5t291 122.5q75 0 144 -24.5t112 -75.5l17 79h182v-587q0 -68 15 -100.5t56 -32.5q30 0 53.5 17t40 49.5t25.5 56t19 59.5l22 -4q-11 -140 -83.5 -224.5t-182.5 -84.5q-45 0 -85 27.5t-58 64.5q-5 16 -25 16q-15 0 -25 -10q-52 -54 -106 -76 t-131 -22q-128 0 -218.5 61t-132.5 160t-42 225zM279 446q0 -50 6.5 -96t24 -93.5t43.5 -82t69 -56.5t98 -22q97 0 155 72.5t58 171.5v102q0 79 -27.5 149t-87 117.5t-139.5 47.5q-58 0 -100 -29.5t-62.5 -78.5t-29 -98.5t-8.5 -103.5zM408 971l274 278h223q9 0 15 -5t6 -13 q0 -14 -15 -23l-387 -237h-116z" />
<glyph unicode="&#xe2;" horiz-adv-x="1161" d="M72 426q0 181 112 303.5t291 122.5q75 0 144 -24.5t112 -75.5l17 79h182v-587q0 -68 15 -100.5t56 -32.5q30 0 53.5 17t40 49.5t25.5 56t19 59.5l22 -4q-11 -140 -83.5 -224.5t-182.5 -84.5q-45 0 -85 27.5t-58 64.5q-5 16 -25 16q-15 0 -25 -10q-52 -54 -106 -76 t-131 -22q-128 0 -218.5 61t-132.5 160t-42 225zM182 977l264 313h185l264 -313h-86l-270 219l-271 -219h-86zM279 446q0 -50 6.5 -96t24 -93.5t43.5 -82t69 -56.5t98 -22q97 0 155 72.5t58 171.5v102q0 79 -27.5 149t-87 117.5t-139.5 47.5q-58 0 -100 -29.5t-62.5 -78.5 t-29 -98.5t-8.5 -103.5z" />
<glyph unicode="&#xe3;" horiz-adv-x="1161" d="M72 426q0 181 112 303.5t291 122.5q75 0 144 -24.5t112 -75.5l17 79h182v-587q0 -68 15 -100.5t56 -32.5q30 0 53.5 17t40 49.5t25.5 56t19 59.5l22 -4q-11 -140 -83.5 -224.5t-182.5 -84.5q-45 0 -85 27.5t-58 64.5q-5 16 -25 16q-15 0 -25 -10q-52 -54 -106 -76 t-131 -22q-128 0 -218.5 61t-132.5 160t-42 225zM223 983l4 76q3 51 17.5 93t47.5 72.5t79 30.5q24 0 45 -5.5t32 -11.5t34 -21t34 -21l113 -68q8 -4 22.5 -12.5t21.5 -12.5t18.5 -7.5t23.5 -3.5q51 0 55 71l4 68h84l-4 -76q-5 -82 -40 -139.5t-103 -57.5q-15 0 -30 3 t-24.5 5.5t-26.5 11.5t-22.5 12t-26 16t-24.5 16l-106 65q-7 4 -21 13t-21 13t-18.5 7.5t-23.5 3.5q-52 0 -56 -71l-4 -70h-84zM279 446q0 -50 6.5 -96t24 -93.5t43.5 -82t69 -56.5t98 -22q97 0 155 72.5t58 171.5v102q0 79 -27.5 149t-87 117.5t-139.5 47.5 q-58 0 -100 -29.5t-62.5 -78.5t-29 -98.5t-8.5 -103.5z" />
<glyph unicode="&#xe4;" horiz-adv-x="1161" d="M72 426q0 181 112 303.5t291 122.5q75 0 144 -24.5t112 -75.5l17 79h182v-587q0 -68 15 -100.5t56 -32.5q30 0 53.5 17t40 49.5t25.5 56t19 59.5l22 -4q-11 -140 -83.5 -224.5t-182.5 -84.5q-45 0 -85 27.5t-58 64.5q-5 16 -25 16q-15 0 -25 -10q-52 -54 -106 -76 t-131 -22q-128 0 -218.5 61t-132.5 160t-42 225zM205 1071q0 45 32.5 83t79.5 38q49 0 82 -38t33 -83t-33 -83t-80 -38q-49 0 -81.5 38t-32.5 83zM279 446q0 -50 6.5 -96t24 -93.5t43.5 -82t69 -56.5t98 -22q97 0 155 72.5t58 171.5v102q0 79 -27.5 149t-87 117.5 t-139.5 47.5q-58 0 -100 -29.5t-62.5 -78.5t-29 -98.5t-8.5 -103.5zM604 1071q0 45 33 83t82 38q47 0 79.5 -38t32.5 -83t-32.5 -83t-79.5 -38q-49 0 -82 38t-33 83z" />
<glyph unicode="&#xe5;" horiz-adv-x="1161" d="M72 426q0 181 112 303.5t291 122.5q75 0 144 -24.5t112 -75.5l17 79h182v-587q0 -68 15 -100.5t56 -32.5q30 0 53.5 17t40 49.5t25.5 56t19 59.5l22 -4q-11 -140 -83.5 -224.5t-182.5 -84.5q-45 0 -85 27.5t-58 64.5q-5 16 -25 16q-15 0 -25 -10q-52 -54 -106 -76 t-131 -22q-128 0 -218.5 61t-132.5 160t-42 225zM256 1204q0 97 77.5 174.5t186.5 77.5t186.5 -77.5t77.5 -174.5q0 -96 -77.5 -173t-186.5 -77t-186.5 77t-77.5 173zM279 446q0 -50 6.5 -96t24 -93.5t43.5 -82t69 -56.5t98 -22q97 0 155 72.5t58 171.5v102q0 79 -27.5 149 t-87 117.5t-139.5 47.5q-58 0 -100 -29.5t-62.5 -78.5t-29 -98.5t-8.5 -103.5zM348 1204q0 -67 48 -118.5t124 -51.5t124 51.5t48 118.5q0 68 -48 120t-124 52t-124 -52t-48 -120z" />
<glyph unicode="&#xe6;" horiz-adv-x="1679" d="M72 414q0 104 38 189t101 138.5t140.5 82t160.5 28.5h143q36 0 65 -9.5t46.5 -20t35.5 -35t25 -37.5t23 -45q58 72 144 109.5t180 37.5q77 0 143 -21.5t119.5 -65.5t84.5 -119.5t31 -174.5q0 -48 -4 -72h-592q9 -169 86.5 -245t227.5 -76q75 0 146.5 42t125.5 113l27 -12 q-56 -120 -162 -180.5t-233 -60.5q-85 0 -173 38t-149 111q-31 -70 -75 -109.5t-128 -39.5h-137q-82 0 -159.5 28.5t-140.5 81t-101.5 137t-38.5 187.5zM272 455q0 -61 15 -125.5t44.5 -124t82 -97.5t118.5 -38h41q76 0 128.5 100.5t52.5 230.5q0 91 -26.5 173.5t-73 134 t-101.5 51.5h-61q-60 0 -104.5 -27.5t-69 -73.5t-35.5 -97t-11 -107zM954 475h410v72q0 84 -44.5 145.5t-133.5 61.5q-118 0 -172 -71t-60 -208z" />
<glyph unicode="&#xe7;" horiz-adv-x="958" d="M70 416q0 106 36 191t96.5 137.5t136 80t157.5 27.5q53 0 100 -8t93 -28t79 -51t53.5 -81t20.5 -113q0 -58 -32.5 -107.5t-90.5 -49.5q-50 0 -84.5 23.5t-34.5 78.5q0 49 37 74t82 10q0 85 -60 122.5t-151 37.5q-55 0 -97 -22t-65 -54.5t-37.5 -79t-19 -87t-4.5 -85.5 q0 -76 17 -138t52.5 -111.5t96 -77t141.5 -27.5q75 0 146.5 42t125.5 113l27 -12q-56 -121 -161 -181t-232 -60q-70 0 -142.5 26.5t-137.5 77t-106.5 137.5t-41.5 195zM73 -323q-3 15 13 26l387 238h117l-275 -279h-223q-16 0 -19 15z" />
<glyph unicode="&#xe8;" horiz-adv-x="958" d="M72 416q0 106 36 191t96.5 137.5t134.5 80t153 27.5q77 0 143 -21.5t119.5 -65.5t84.5 -119.5t31 -174.5q0 -48 -4 -72h-592q9 -169 86.5 -245t227.5 -76q75 0 146.5 42t125.5 113l27 -12q-56 -120 -162 -180.5t-233 -60.5q-55 0 -112 16t-112.5 51t-99 84.5t-70 123.5 t-26.5 161zM150 1229q0 9 6 14.5t14 5.5h223l275 -278h-117l-387 237q-14 7 -14 21zM272 475h408q2 45 2 72q0 84 -44.5 145.5t-133.5 61.5q-118 0 -172 -71t-60 -208z" />
<glyph unicode="&#xe9;" horiz-adv-x="958" d="M72 416q0 106 36 191t96.5 137.5t134.5 80t153 27.5q77 0 143 -21.5t119.5 -65.5t84.5 -119.5t31 -174.5q0 -48 -4 -72h-592q9 -169 86.5 -245t227.5 -76q75 0 146.5 42t125.5 113l27 -12q-56 -120 -162 -180.5t-233 -60.5q-55 0 -112 16t-112.5 51t-99 84.5t-70 123.5 t-26.5 161zM272 475h408q2 45 2 72q0 84 -44.5 145.5t-133.5 61.5q-118 0 -172 -71t-60 -208zM305 971l275 278h223q20 0 20 -18q0 -15 -14 -23l-387 -237h-117z" />
<glyph unicode="&#xea;" horiz-adv-x="958" d="M72 416q0 106 36 191t96.5 137.5t134.5 80t153 27.5q77 0 143 -21.5t119.5 -65.5t84.5 -119.5t31 -174.5q0 -48 -4 -72h-592q9 -169 86.5 -245t227.5 -76q75 0 146.5 42t125.5 113l27 -12q-56 -120 -162 -180.5t-233 -60.5q-55 0 -112 16t-112.5 51t-99 84.5t-70 123.5 t-26.5 161zM125 977l264 313h184l265 -313h-86l-271 219l-270 -219h-86zM272 475h408q2 45 2 72q0 84 -44.5 145.5t-133.5 61.5q-118 0 -172 -71t-60 -208z" />
<glyph unicode="&#xeb;" horiz-adv-x="958" d="M72 416q0 106 36 191t96.5 137.5t134.5 80t153 27.5q77 0 143 -21.5t119.5 -65.5t84.5 -119.5t31 -174.5q0 -48 -4 -72h-592q9 -169 86.5 -245t227.5 -76q75 0 146.5 42t125.5 113l27 -12q-56 -120 -162 -180.5t-233 -60.5q-55 0 -112 16t-112.5 51t-99 84.5t-70 123.5 t-26.5 161zM176 1071q0 45 33 83t80 38q49 0 81.5 -38t32.5 -83t-32.5 -83t-79.5 -38q-49 0 -82 38t-33 83zM272 475h408q2 45 2 72q0 84 -44.5 145.5t-133.5 61.5q-118 0 -172 -71t-60 -208zM575 1071q0 45 33 83t82 38q47 0 80 -38t33 -83t-33 -83t-80 -38q-49 0 -82 38 t-33 83z" />
<glyph unicode="&#xec;" horiz-adv-x="634" d="M-113 1229q0 9 6.5 14.5t14.5 5.5h223l275 -278h-117l-387 237q-15 8 -15 21zM20 780v51h383v-587q0 -67 15.5 -100t56.5 -33q24 0 44.5 13t34 30t26 45.5t18.5 46.5t14 47l23 -4q-11 -140 -83.5 -224.5t-182.5 -84.5q-88 0 -129 63t-41 188v381q0 58 -15.5 91.5 t-58.5 46.5z" />
<glyph unicode="&#xed;" horiz-adv-x="641" d="M20 780v51h383v-587q0 -67 15.5 -100t56.5 -33q24 0 44.5 13t34 30t26 45.5t18.5 46.5t14 47l23 -4q-11 -140 -83.5 -224.5t-182.5 -84.5q-88 0 -129 63t-41 188v381q0 58 -15.5 91.5t-58.5 46.5zM152 971l274 278h223q9 0 15 -5t6 -13q0 -14 -15 -23l-387 -237h-116z " />
<glyph unicode="&#xee;" horiz-adv-x="634" d="M-84 977l264 313h185l264 -313h-86l-271 219l-270 -219h-86zM20 780v51h383v-587q0 -67 15.5 -100t56.5 -33q24 0 44.5 13t34 30t26 45.5t18.5 46.5t14 47l23 -4q-11 -140 -83.5 -224.5t-182.5 -84.5q-88 0 -129 63t-41 188v381q0 58 -15.5 91.5t-58.5 46.5z" />
<glyph unicode="&#xef;" horiz-adv-x="634" d="M-10 1071q0 45 32.5 83t79.5 38q49 0 82 -38t33 -83t-33 -83t-82 -38q-47 0 -79.5 38t-32.5 83zM20 780v51h383v-587q0 -67 15.5 -100t56.5 -33q24 0 44.5 13t34 30t26 45.5t18.5 46.5t14 47l23 -4q-11 -140 -83.5 -224.5t-182.5 -84.5q-88 0 -129 63t-41 188v381 q0 58 -15.5 91.5t-58.5 46.5zM348 1071q0 45 33 83t80 38q49 0 81.5 -38t32.5 -83t-32.5 -83t-81.5 -38q-47 0 -80 38t-33 83z" />
<glyph unicode="&#xf0;" horiz-adv-x="1150" d="M92 410q0 190 116.5 316t295.5 126q49 0 107.5 -14.5t125.5 -53.5t105 -96q8 31 8 94q0 159 -76 295l-164 -114l-53 77l162 115q-96 111 -234 111q-117 0 -196 -47l-27 34q93 84 234 84q183 0 321 -114l158 110l53 -78l-143 -100q164 -192 164 -516q0 -300 -141.5 -481 t-370.5 -181q-77 0 -153 26t-142.5 76.5t-108 136.5t-41.5 194zM272 365q0 -54 14 -107t42 -100t78 -76t114 -29q65 0 122 40t92.5 99.5t56 125.5t20.5 122q0 71 -33.5 143t-94.5 121.5t-130 49.5q-130 0 -205.5 -107.5t-75.5 -281.5z" />
<glyph unicode="&#xf1;" horiz-adv-x="1247" d="M20 780v51h363l20 -155q71 97 153.5 136.5t195.5 39.5q105 0 182.5 -64.5t77.5 -169.5q0 -55 -6.5 -186t-6.5 -188q0 -69 14 -101t54 -32q24 0 44.5 13t34 30t26 45.5t18.5 46.5t14 47l23 -4q-11 -140 -81.5 -224.5t-180.5 -84.5q-170 0 -170 256q0 51 6 156.5t6 156.5 q0 160 -156 160q-59 0 -104.5 -24.5t-71.5 -60.5t-43 -84t-23 -88.5t-6 -80.5v-371h-204v612q0 58 -15.5 91.5t-58.5 46.5zM276 983l5 76q3 51 17.5 93t47 72.5t78.5 30.5q24 0 45 -5.5t32 -11.5t34 -21t34 -21l113 -68q8 -4 22.5 -12.5t21.5 -12.5t18.5 -7.5t23.5 -3.5 q51 0 55 71l4 68h84l-4 -76q-5 -82 -40 -139.5t-103 -57.5q-15 0 -30 3t-24.5 5.5t-26.5 11.5t-22.5 12t-26 16t-24.5 16l-106 65q-7 4 -21 13t-21 13t-18.5 7.5t-23.5 3.5q-51 0 -55 -71l-5 -70h-84z" />
<glyph unicode="&#xf2;" horiz-adv-x="1026" d="M72 414q0 104 38 189t101 138.5t140.5 82t160.5 28.5t161 -28.5t141 -82t101.5 -138.5t38.5 -189q0 -103 -38.5 -187.5t-102 -137t-141.5 -81t-160 -28.5t-159.5 28.5t-140.5 81t-101.5 137t-38.5 187.5zM156 1229q0 9 6 14.5t14 5.5h223l275 -278h-117l-387 237 q-14 7 -14 21zM272 455q0 -61 15 -125.5t44.5 -124t82 -97.5t118.5 -38q61 0 106 28t69 75t35.5 99t11.5 109q0 61 -15.5 124.5t-46 122t-82.5 95.5t-118 37q-60 0 -104.5 -27.5t-69 -73.5t-35.5 -97t-11 -107z" />
<glyph unicode="&#xf3;" horiz-adv-x="1026" d="M72 414q0 104 38 189t101 138.5t140.5 82t160.5 28.5t161 -28.5t141 -82t101.5 -138.5t38.5 -189q0 -103 -38.5 -187.5t-102 -137t-141.5 -81t-160 -28.5t-159.5 28.5t-140.5 81t-101.5 137t-38.5 187.5zM272 455q0 -61 15 -125.5t44.5 -124t82 -97.5t118.5 -38 q61 0 106 28t69 75t35.5 99t11.5 109q0 61 -15.5 124.5t-46 122t-82.5 95.5t-118 37q-60 0 -104.5 -27.5t-69 -73.5t-35.5 -97t-11 -107zM360 971l275 278h223q9 0 15 -5t6 -13q0 -14 -15 -23l-387 -237h-117z" />
<glyph unicode="&#xf4;" horiz-adv-x="1026" d="M72 414q0 104 38 189t101 138.5t140.5 82t160.5 28.5t161 -28.5t141 -82t101.5 -138.5t38.5 -189q0 -103 -38.5 -187.5t-102 -137t-141.5 -81t-160 -28.5t-159.5 28.5t-140.5 81t-101.5 137t-38.5 187.5zM152 977l264 313h184l264 -313h-86l-270 219l-270 -219h-86z M272 455q0 -61 15 -125.5t44.5 -124t82 -97.5t118.5 -38q61 0 106 28t69 75t35.5 99t11.5 109q0 61 -15.5 124.5t-46 122t-82.5 95.5t-118 37q-60 0 -104.5 -27.5t-69 -73.5t-35.5 -97t-11 -107z" />
<glyph unicode="&#xf5;" horiz-adv-x="1026" d="M72 414q0 104 38 189t101 138.5t140.5 82t160.5 28.5t161 -28.5t141 -82t101.5 -138.5t38.5 -189q0 -103 -38.5 -187.5t-102 -137t-141.5 -81t-160 -28.5t-159.5 28.5t-140.5 81t-101.5 137t-38.5 187.5zM205 983l4 76q3 51 17.5 93t47 72.5t78.5 30.5q24 0 45.5 -6 t32 -11t34.5 -20.5t34 -21.5l112 -68q8 -4 22.5 -12.5t21.5 -12.5t18.5 -7.5t23.5 -3.5q52 0 56 71l4 68h84l-4 -76q-5 -82 -40.5 -139.5t-103.5 -57.5q-15 0 -29.5 3t-24.5 6t-26 11t-22.5 12t-25.5 16t-25 16l-107 65q-7 4 -21 13t-21 13t-18.5 7.5t-23.5 3.5 q-51 0 -55 -71l-4 -70h-84zM272 455q0 -61 15 -125.5t44.5 -124t82 -97.5t118.5 -38q61 0 106 28t69 75t35.5 99t11.5 109q0 61 -15.5 124.5t-46 122t-82.5 95.5t-118 37q-60 0 -104.5 -27.5t-69 -73.5t-35.5 -97t-11 -107z" />
<glyph unicode="&#xf6;" horiz-adv-x="1026" d="M72 414q0 104 38 189t101 138.5t140.5 82t160.5 28.5t161 -28.5t141 -82t101.5 -138.5t38.5 -189q0 -103 -38.5 -187.5t-102 -137t-141.5 -81t-160 -28.5t-159.5 28.5t-140.5 81t-101.5 137t-38.5 187.5zM188 1071q0 45 33 83t80 38q49 0 82 -38t33 -83t-33 -83t-80 -38 q-49 0 -82 38t-33 83zM272 455q0 -61 15 -125.5t44.5 -124t82 -97.5t118.5 -38q61 0 106 28t69 75t35.5 99t11.5 109q0 61 -15.5 124.5t-46 122t-82.5 95.5t-118 37q-60 0 -104.5 -27.5t-69 -73.5t-35.5 -97t-11 -107zM588 1071q0 45 32.5 83t81.5 38q47 0 80 -38t33 -83 t-33 -83t-80 -38q-49 0 -81.5 38t-32.5 83z" />
<glyph unicode="&#xf7;" horiz-adv-x="1245" />
<glyph unicode="&#xf8;" horiz-adv-x="1058" d="M72 0l121 125q-105 120 -105 289q0 104 38.5 189t101.5 138.5t140.5 82t159.5 28.5q156 0 277 -92l69 71h113l-123 -124q107 -120 107 -293q0 -103 -38.5 -187.5t-102 -137t-141.5 -81t-161 -28.5q-157 0 -278 92l-68 -72h-110zM289 455q0 -110 35 -195l372 387 q-71 113 -188 113q-60 0 -104.5 -27.5t-68.5 -73.5t-35 -97t-11 -107zM360 184q72 -114 189 -114q60 0 105 28t69 74t35.5 97.5t11.5 107.5q0 109 -35 194z" />
<glyph unicode="&#xf9;" horiz-adv-x="1284" d="M20 780v51h383v-548q0 -34 5.5 -59.5t19.5 -50t44.5 -37.5t76.5 -13q49 0 88.5 16.5t64.5 45.5t42.5 62.5t26 74t12 73.5t3.5 66v370h205v-587q0 -67 15.5 -100t56.5 -33q24 0 44.5 13t34 30t26 45.5t18.5 46.5t14 47l23 -4q-11 -140 -84 -224.5t-183 -84.5 q-52 0 -93 33.5t-62 88.5q-7 17 -27 17q-14 0 -24 -10q-66 -72 -130 -100.5t-159 -28.5q-114 0 -188 66t-74 192v374q0 58 -15.5 91.5t-58.5 46.5zM258 1229q0 9 6.5 14.5t14.5 5.5h223l274 -278h-117l-387 237q-14 7 -14 21z" />
<glyph unicode="&#xfa;" horiz-adv-x="1284" d="M20 780v51h383v-548q0 -34 5.5 -59.5t19.5 -50t44.5 -37.5t76.5 -13q49 0 88.5 16.5t64.5 45.5t42.5 62.5t26 74t12 73.5t3.5 66v370h205v-587q0 -67 15.5 -100t56.5 -33q24 0 44.5 13t34 30t26 45.5t18.5 46.5t14 47l23 -4q-11 -140 -84 -224.5t-183 -84.5 q-52 0 -93 33.5t-62 88.5q-7 17 -27 17q-14 0 -24 -10q-66 -72 -130 -100.5t-159 -28.5q-114 0 -188 66t-74 192v374q0 58 -15.5 91.5t-58.5 46.5zM463 971l274 278h224q20 0 20 -18q0 -15 -14 -23l-387 -237h-117z" />
<glyph unicode="&#xfb;" horiz-adv-x="1284" d="M20 780v51h383v-548q0 -34 5.5 -59.5t19.5 -50t44.5 -37.5t76.5 -13q49 0 88.5 16.5t64.5 45.5t42.5 62.5t26 74t12 73.5t3.5 66v370h205v-587q0 -67 15.5 -100t56.5 -33q24 0 44.5 13t34 30t26 45.5t18.5 46.5t14 47l23 -4q-11 -140 -84 -224.5t-183 -84.5 q-52 0 -93 33.5t-62 88.5q-7 17 -27 17q-14 0 -24 -10q-66 -72 -130 -100.5t-159 -28.5q-114 0 -188 66t-74 192v374q0 58 -15.5 91.5t-58.5 46.5zM248 977l264 313h184l265 -313h-87l-270 219l-270 -219h-86z" />
<glyph unicode="&#xfc;" horiz-adv-x="1284" d="M20 780v51h383v-548q0 -34 5.5 -59.5t19.5 -50t44.5 -37.5t76.5 -13q49 0 88.5 16.5t64.5 45.5t42.5 62.5t26 74t12 73.5t3.5 66v370h205v-587q0 -67 15.5 -100t56.5 -33q24 0 44.5 13t34 30t26 45.5t18.5 46.5t14 47l23 -4q-11 -140 -84 -224.5t-183 -84.5 q-52 0 -93 33.5t-62 88.5q-7 17 -27 17q-14 0 -24 -10q-66 -72 -130 -100.5t-159 -28.5q-114 0 -188 66t-74 192v374q0 58 -15.5 91.5t-58.5 46.5zM285 1071q0 45 32.5 83t79.5 38q49 0 82 -38t33 -83t-33 -83t-80 -38q-49 0 -81.5 38t-32.5 83zM684 1071q0 45 33 83t82 38 q47 0 79.5 -38t32.5 -83t-32.5 -83t-79.5 -38q-49 0 -82 38t-33 83z" />
<glyph unicode="&#xfd;" horiz-adv-x="1060" d="M31 760v71h307l254 -712l219 573q6 15 6 29q0 19 -10.5 31t-28.5 12h-67v67h329v-67h-18q-25 0 -42 -6t-29.5 -23t-18 -28t-17.5 -41l-321 -799q-42 -107 -109.5 -167t-152.5 -60q-101 0 -169.5 52.5t-68.5 141.5q0 36 27 63t69 27q39 0 69 -21t30 -57q0 -54 -49 -71 q8 -24 30.5 -36.5t48.5 -12.5q84 0 140.5 76.5t56.5 191.5q0 29 -21 50.5t-57 25.5q-32 4 -51 31.5t-41 88.5l-158 437q-17 49 -34 71.5t-56 36.5zM446 930l275 278h223q9 0 15 -5t6 -13q0 -14 -15 -23l-387 -237h-117z" />
<glyph unicode="&#xfe;" horiz-adv-x="1132" d="M20 1266v51h383v-555q0 -10 15 -10q6 0 8 2q89 98 244 98q185 0 288 -128t103 -331q0 -178 -115.5 -295.5t-286.5 -117.5q-78 0 -147 24.5t-109 75.5v-230q0 -85 30.5 -113t98.5 -28h25v-57h-510v57h23q74 0 101.5 28.5t27.5 112.5v1248q0 58 -15.5 91t-58.5 46zM395 399 q0 -45 14 -97t43 -104.5t82.5 -87t122.5 -34.5q197 0 197 293q0 56 -10 111.5t-34.5 115.5t-76 97.5t-123.5 37.5q-59 0 -103 -25t-67 -65t-34 -80.5t-11 -79.5v-82z" />
<glyph unicode="&#xff;" horiz-adv-x="1060" d="M31 760v71h307l254 -712l219 573q6 15 6 29q0 19 -10.5 31t-28.5 12h-67v67h329v-67h-18q-25 0 -42 -6t-29.5 -23t-18 -28t-17.5 -41l-321 -799q-42 -107 -109.5 -167t-152.5 -60q-101 0 -169.5 52.5t-68.5 141.5q0 36 27 63t69 27q39 0 69 -21t30 -57q0 -54 -49 -71 q8 -24 30.5 -36.5t48.5 -12.5q84 0 140.5 76.5t56.5 191.5q0 29 -21 50.5t-57 25.5q-32 4 -51 31.5t-41 88.5l-158 437q-17 49 -34 71.5t-56 36.5zM227 1071q0 45 33 83t80 38q49 0 82 -38t33 -83t-33 -83t-80 -38q-49 0 -82 38t-33 83zM627 1071q0 45 32.5 83t81.5 38 q47 0 80 -38t33 -83t-33 -83t-80 -38q-49 0 -81.5 38t-32.5 83z" />
<glyph unicode="&#x152;" horiz-adv-x="2146" d="M102 657q0 129 37.5 241t101.5 191.5t148.5 136.5t179.5 85t193 28q25 0 100 -5.5t137 -11.5l62 -5h932v-426h-90q-12 80 -32 136.5t-56 102t-95 67.5t-141 22h-190q-67 0 -96 -31.5t-29 -108.5v-350h145q100 0 100 152v49h103v-529h-103v50q0 151 -100 151h-145v-362 q0 -85 30.5 -113.5t98.5 -28.5h211q294 0 301 363h98v-461h-920q-264 -23 -321 -23q-98 0 -193 28t-179.5 85t-148.5 136.5t-101.5 190.5t-37.5 240zM350 711q0 -76 16 -159t52 -167t86.5 -150.5t126 -108.5t164.5 -42q135 0 187 65t52 187v633q0 40 -5 72t-22.5 69.5 t-48 62t-86 41.5t-131.5 17q-83 0 -151 -32.5t-112 -85t-73.5 -121.5t-42 -139.5t-12.5 -141.5z" />
<glyph unicode="&#x153;" horiz-adv-x="1640" d="M72 414q0 104 38 189t101 138.5t140.5 82t160.5 28.5q96 0 185.5 -38t152.5 -109q58 72 144 109.5t180 37.5q77 0 143 -21.5t119.5 -65.5t84.5 -119.5t31 -174.5q0 -48 -4 -72h-592q9 -169 86.5 -245t227.5 -76q75 0 146.5 42t125.5 113l27 -12q-56 -120 -162 -180.5 t-233 -60.5q-85 0 -173 38t-149 111q-63 -72 -153.5 -110.5t-186.5 -38.5q-82 0 -159.5 28.5t-140.5 81t-101.5 137t-38.5 187.5zM272 455q0 -61 15 -125.5t44.5 -124t82 -97.5t118.5 -38q61 0 106 28t69 75t35.5 99t11.5 109q0 61 -15.5 124.5t-46 122t-82.5 95.5t-118 37 q-60 0 -104.5 -27.5t-69 -73.5t-35.5 -97t-11 -107zM954 475h410v72q0 84 -44.5 145.5t-133.5 61.5q-118 0 -172 -71t-60 -208z" />
<glyph unicode="&#x178;" horiz-adv-x="1409" d="M20 1262v55h564v-98h-78q-28 0 -47 -13.5t-19 -40.5q0 -21 19 -51l299 -508l293 508q18 36 18 51q0 27 -19 40.5t-46 13.5h-78v98h463v-98h-31q-52 0 -79.5 -15.5t-55.5 -64.5l-389 -678v-221q0 -85 31.5 -113.5t99.5 -28.5h118v-98h-673v98h65q75 0 103 29t28 113v198 l-407 666q-39 62 -76.5 95.5t-102.5 62.5zM428 1542q0 45 33 83t80 38q49 0 81.5 -38t32.5 -83t-32.5 -83t-79.5 -38q-49 0 -82 38t-33 83zM827 1542q0 45 33 83t82 38q47 0 80 -38t33 -83t-33 -83t-80 -38q-49 0 -82 38t-33 83z" />
<glyph unicode="&#x2c6;" horiz-adv-x="819" d="M53 1366l264 313h185l264 -313h-86l-270 219l-271 -219h-86z" />
<glyph unicode="&#x2dc;" horiz-adv-x="819" d="M92 1393l4 75q3 51 17.5 93.5t47.5 73t79 30.5q24 0 45 -5.5t32 -11.5t34 -21t34 -21l113 -68q8 -4 22 -13t21.5 -13t19 -7.5t23.5 -3.5q51 0 55 72l4 67h84l-4 -75q-5 -82 -40 -139.5t-103 -57.5q-15 0 -30 3t-24.5 5.5t-26.5 11.5t-22.5 12t-26 16t-24.5 16l-107 65 q-7 4 -20.5 13t-20.5 13t-18.5 7.5t-23.5 3.5q-52 0 -56 -72l-4 -69h-84z" />
<glyph unicode="&#x2000;" horiz-adv-x="860" />
<glyph unicode="&#x2001;" horiz-adv-x="1720" />
<glyph unicode="&#x2002;" horiz-adv-x="860" />
<glyph unicode="&#x2003;" horiz-adv-x="1720" />
<glyph unicode="&#x2004;" horiz-adv-x="573" />
<glyph unicode="&#x2005;" horiz-adv-x="430" />
<glyph unicode="&#x2006;" horiz-adv-x="286" />
<glyph unicode="&#x2007;" horiz-adv-x="286" />
<glyph unicode="&#x2008;" horiz-adv-x="215" />
<glyph unicode="&#x2009;" horiz-adv-x="344" />
<glyph unicode="&#x200a;" horiz-adv-x="95" />
<glyph unicode="&#x2010;" horiz-adv-x="616" d="M82 434v156h453v-156h-453z" />
<glyph unicode="&#x2011;" horiz-adv-x="616" d="M82 434v156h453v-156h-453z" />
<glyph unicode="&#x2012;" horiz-adv-x="616" d="M82 434v156h453v-156h-453z" />
<glyph unicode="&#x2013;" horiz-adv-x="1046" d="M82 434v156h883v-156h-883z" />
<glyph unicode="&#x2014;" horiz-adv-x="1456" d="M82 434v156h1292v-156h-1292z" />
<glyph unicode="&#x2018;" horiz-adv-x="458" d="M72 977q0 129 83.5 220t209.5 91h14l8 -45h-18q-55 0 -107.5 -35t-52.5 -96q0 -29 15.5 -49.5t37.5 -33.5t43.5 -27t37 -38.5t15.5 -58.5q0 -61 -33 -96t-94 -35q-73 0 -116 59.5t-43 143.5z" />
<glyph unicode="&#x2019;" horiz-adv-x="458" d="M72 819h18q55 0 107.5 35t52.5 96q0 29 -15.5 49.5t-37.5 33.5t-44 27t-37.5 38.5t-15.5 58.5q0 61 33 96t94 35q73 0 116.5 -59.5t43.5 -143.5q0 -129 -83.5 -220t-209.5 -91h-14z" />
<glyph unicode="&#x201a;" horiz-adv-x="448" d="M72 -117h18q55 0 107.5 35t52.5 96q0 29 -15.5 49.5t-37.5 33.5t-44 27t-37.5 38.5t-15.5 58.5q0 61 33 96t94 35q73 0 116.5 -59t43.5 -143q0 -129 -83.5 -220.5t-209.5 -91.5h-14z" />
<glyph unicode="&#x201c;" horiz-adv-x="847" d="M72 977q0 129 83.5 220t209.5 91h14l8 -45h-18q-55 0 -107.5 -35t-52.5 -96q0 -29 15.5 -49.5t37.5 -33.5t43.5 -27t37 -38.5t15.5 -58.5q0 -61 -33 -96t-94 -35q-73 0 -116 59.5t-43 143.5zM461 977q0 129 83.5 220t209.5 91h14l8 -45h-18q-55 0 -107.5 -35t-52.5 -96 q0 -29 15.5 -49.5t37.5 -33.5t44 -27t37.5 -38.5t15.5 -58.5q0 -61 -33 -96t-94 -35q-73 0 -116.5 59.5t-43.5 143.5z" />
<glyph unicode="&#x201d;" horiz-adv-x="847" d="M72 819h18q55 0 107.5 35t52.5 96q0 29 -15.5 49.5t-37.5 33.5t-44 27t-37.5 38.5t-15.5 58.5q0 61 33 96t94 35q73 0 116.5 -59.5t43.5 -143.5q0 -129 -83.5 -220t-209.5 -91h-14zM461 819h18q55 0 107.5 35t52.5 96q0 29 -15.5 49.5t-37.5 33.5t-44 27t-37.5 38.5 t-15.5 58.5q0 61 33 96t94 35q73 0 116.5 -59.5t43.5 -143.5q0 -129 -83.5 -220t-209.5 -91h-14z" />
<glyph unicode="&#x201e;" horiz-adv-x="837" d="M72 -117h18q55 0 107.5 35t52.5 96q0 29 -15.5 49.5t-37.5 33.5t-44 27t-37.5 38.5t-15.5 58.5q0 61 33 96t94 35q73 0 116.5 -59t43.5 -143q0 -129 -83.5 -220.5t-209.5 -91.5h-14zM461 -117h18q55 0 107.5 35t52.5 96q0 29 -15.5 49.5t-37.5 33.5t-44 27t-37.5 38.5 t-15.5 58.5q0 61 33 96t94 35q73 0 116.5 -59t43.5 -143q0 -129 -83.5 -220.5t-209.5 -91.5h-14z" />
<glyph unicode="&#x2022;" horiz-adv-x="794" d="M102 547q0 100 86.5 180t208.5 80t208.5 -80t86.5 -180t-86.5 -180t-208.5 -80t-208.5 80t-86.5 180z" />
<glyph unicode="&#x2026;" horiz-adv-x="1175" d="M72 117q0 52 36.5 93.5t90.5 41.5t90.5 -41.5t36.5 -93.5t-37 -94.5t-90 -42.5t-90 42.5t-37 94.5zM461 117q0 52 36.5 93.5t90.5 41.5t90.5 -41.5t36.5 -93.5t-37 -94.5t-90 -42.5t-90 42.5t-37 94.5zM850 117q0 52 36.5 93.5t90.5 41.5t90.5 -41.5t36.5 -93.5 t-37 -94.5t-90 -42.5t-90 42.5t-37 94.5z" />
<glyph unicode="&#x202f;" horiz-adv-x="344" />
<glyph unicode="&#x2039;" horiz-adv-x="702" d="M61 375v102l580 387v-86l-373 -352l373 -352v-86z" />
<glyph unicode="&#x203a;" horiz-adv-x="702" d="M61 -12v86l373 352l-373 352v86l580 -387v-102z" />
<glyph unicode="&#x205f;" horiz-adv-x="430" />
<glyph unicode="&#x20ac;" horiz-adv-x="1441" d="M20 510l31 82h127q-4 54 -4 80q0 41 2 59h-156l31 82h137q30 154 122.5 275.5t217 186t256.5 64.5q105 0 254 -55q62 -24 88 -24q30 0 55.5 16.5t37.5 44.5l6 18h88v-434h-78q-33 142 -153.5 229t-270.5 87q-85 0 -154.5 -34.5t-115.5 -94t-75 -129.5t-42 -150h512 l-31 -82h-489v-37q0 -69 4 -102h430l-31 -82h-389q34 -192 143 -302t295 -110q124 0 233 91.5t165 238.5l73 -25q-54 -194 -189.5 -310t-328.5 -116q-245 0 -417.5 139.5t-217.5 393.5h-166z" />
<glyph unicode="&#x2122;" horiz-adv-x="1337" d="M102 961v200h660l147 -385l135 385h183v-41h-13q-27 0 -39 -12t-12 -45v-338q0 -34 13 -45.5t41 -11.5h28v-41h-254v41h27q30 0 41.5 12t11.5 45v338l-160 -436h-45l-164 417v-319q0 -34 13 -45.5t41 -11.5h26v-41h-200v41h8q31 0 42 11.5t11 45.5v348q0 24 -9 34.5 t-30 10.5h-219v-393q0 -35 12 -46t39 -11h49v-41h-274v41h27q30 0 41.5 12t11.5 45v393h-35q-34 0 -57.5 -13t-36 -37.5t-17.5 -48.5t-8 -58h-35z" />
<glyph unicode="&#x25fc;" horiz-adv-x="829" d="M0 0v829h829v-829h-829z" />
<glyph unicode="&#xfb01;" horiz-adv-x="1183" d="M20 799v32h103q30 0 41.5 16t11.5 48v47q0 178 108.5 289t288.5 112q92 1 176 -22.5t142.5 -77t58.5 -125.5q0 -53 -36.5 -94t-90.5 -41t-90.5 41t-36.5 94t37 96q-57 39 -131 39q-221 0 -221 -239v-183h571v-587q0 -67 15.5 -100t56.5 -33q24 0 44.5 13t34 30t26 45.5 t18.5 46.5t14 47l23 -4q-11 -140 -83.5 -224.5t-182.5 -84.5q-88 0 -129 63t-41 188v381q0 30 -2.5 51.5t-9.5 43t-22.5 32.5t-39.5 11h-293v-750h-205v745z" />
<glyph unicode="&#xfb02;" horiz-adv-x="1234" d="M20 799v32h103q30 0 41.5 16t11.5 48v47q0 179 105 290t284 111q36 0 158 -13t158 -13h123v-1073q0 -68 15 -100.5t56 -32.5q24 0 44.5 13t34 30t26 45.5t18.5 46.5t14 47l23 -4q-11 -140 -83.5 -224.5t-182.5 -84.5q-88 0 -129 63t-41 188v867q0 77 -52 116t-143 39 q-116 0 -169.5 -56t-53.5 -183v-183h223v-86h-223v-745h-205v745z" />
</font>
</defs>
</svg>
